<svg xmlns="http://www.w3.org/2000/svg" width="20.932" height="18" viewBox="0 0 20.932 18">
  <g id="alert" transform="translate(0 -35.857)">
    <g id="Group_167" data-name="Group 167" transform="translate(0 35.857)">
      <g id="Group_166" data-name="Group 166" transform="translate(0 0)">
        <path id="Path_492" data-name="Path 492" d="M20.662,51.006,12.076,36.766a1.88,1.88,0,0,0-3.221,0L.269,51.006a1.88,1.88,0,0,0,1.61,2.851H19.051a1.88,1.88,0,0,0,1.61-2.851ZM19.5,52.231a.519.519,0,0,1-.451.263H1.88a.518.518,0,0,1-.443-.785L10.022,37.47a.518.518,0,0,1,.887,0l8.586,14.239A.518.518,0,0,1,19.5,52.231Z" transform="translate(0 -35.857)" fill="#e92100"/>
      </g>
    </g>
    <g id="Group_169" data-name="Group 169" transform="translate(9.549 41.464)">
      <g id="Group_168" data-name="Group 168" transform="translate(0 0)">
        <path id="Path_493" data-name="Path 493" d="M234.5,173.005c-.518,0-.923.278-.923.771,0,1.5.177,3.667.177,5.171,0,.392.341.556.746.556.3,0,.733-.164.733-.556,0-1.5.177-3.667.177-5.171A.812.812,0,0,0,234.5,173.005Z" transform="translate(-233.578 -173.005)" fill="#e92100"/>
      </g>
    </g>
    <g id="Group_171" data-name="Group 171" transform="translate(9.511 48.835)">
      <g id="Group_170" data-name="Group 170" transform="translate(0 0)">
        <path id="Path_494" data-name="Path 494" d="M233.625,353.306a.974.974,0,1,0,0,1.947.974.974,0,0,0,0-1.947Z" transform="translate(-232.651 -353.306)" fill="#e92100"/>
      </g>
    </g>
  </g>
</svg>
