<svg xmlns="http://www.w3.org/2000/svg" width="18.001" height="18.003" viewBox="0 0 18.001 18.003">
  <path id="business_highlight" d="M18,16.667c0,1.538-1.333,1.313-1.333,1.313V18H1.333v-.021S.005,18.2,0,16.667H0v-6H1.333v6H16.668v-6H18v6ZM8.667,11.333C1.417,11.333,0,8.666,0,8.666v-4C0,3.1,1.333,3.333,1.333,3.333H16.668v.021S18,3.128,18,4.666h0v4S16.417,11.333,8.667,11.333Zm8-6V4.666H1.333V8s1.708,2,7.334,2,6.917-1.271,8-2ZM11.334,2a.606.606,0,0,0-.667-.667H7.334A.606.606,0,0,0,6.667,2v.667H5.334V1.333S5.292,0,7.334,0h3.334s2-.1,2,1.333V2.666H11.334Z" transform="translate(0 0.002)" fill="#4285f4" fill-rule="evenodd"/>
</svg>
