<svg xmlns="http://www.w3.org/2000/svg" xmlns:xlink="http://www.w3.org/1999/xlink" width="82" height="82" viewBox="0 0 82 82">
  <defs>
    <filter id="Oval" x="0" y="0" width="82" height="82" filterUnits="userSpaceOnUse">
      <feOffset dy="3" input="SourceAlpha"/>
      <feGaussianBlur stdDeviation="3.5" result="blur"/>
      <feFlood flood-opacity="0.161"/>
      <feComposite operator="in" in2="blur"/>
      <feComposite in="SourceGraphic"/>
    </filter>
  </defs>
  <g id="business_chat" transform="translate(-284 -724)">
    <g transform="matrix(1, 0, 0, 1, 284, 724)" filter="url(#Oval)">
      <path id="Oval-2" data-name="Oval" d="M30,0A30,30,0,1,1,0,30,30,30,0,0,1,30,0Z" transform="translate(11 8)" fill="#4285f4" stroke="rgba(0,0,0,0)" stroke-width="1"/>
    </g>
    <path id="chat_2" d="M9.29,17.419a8.663,8.663,0,0,1-3.846-.9L0,18l1.576-5.254A8.707,8.707,0,1,1,9.29,17.419ZM4.645,7.548A1.161,1.161,0,1,0,5.806,8.71,1.161,1.161,0,0,0,4.645,7.548Zm4.645,0A1.161,1.161,0,1,0,10.452,8.71,1.161,1.161,0,0,0,9.29,7.548Zm4.645,0A1.161,1.161,0,1,0,15.1,8.71,1.161,1.161,0,0,0,13.935,7.548Z" transform="translate(316 753)" fill="#fff" fill-rule="evenodd"/>
  </g>
</svg>
