<svg xmlns="http://www.w3.org/2000/svg" width="22.713" height="20" viewBox="0 0 22.713 20">
  <path id="camera" d="M20.666,19.952H2.09S.026,20.5.026,17.888V4.128A1.826,1.826,0,0,1,2.09,2.064H6.218L8.282,0h6.192l2.064,2.064h4.128s2.064-.413,2.064,2.064v13.76A2.021,2.021,0,0,1,20.666,19.952ZM11.378,5.5a5.848,5.848,0,1,0,5.848,5.848A5.848,5.848,0,0,0,11.378,5.5Zm0,9.632a3.784,3.784,0,1,1,3.784-3.784A3.784,3.784,0,0,1,11.378,15.136Z" transform="translate(-0.017)" fill="#969696" fill-rule="evenodd"/>
</svg>
