<svg xmlns="http://www.w3.org/2000/svg" width="26.67" height="18" viewBox="0 0 26.67 18">
  <path id="community" d="M26.666,10.667v4H25.333v-4c0-.583-.667-.667-.667-.667h-4V8.667h4A1.862,1.862,0,0,1,26.666,10.667ZM22.333,7.333a3,3,0,1,1,3-3A3,3,0,0,1,22.333,7.333Zm0-4.667A1.667,1.667,0,1,0,24,4.333,1.666,1.666,0,0,0,22.333,2.667ZM20,17.333a.667.667,0,0,1-1.333,0v-4A1.241,1.241,0,0,0,17.333,12h-8A1.213,1.213,0,0,0,8,13.333v4a.667.667,0,0,1-1.333,0V12.667a2.032,2.032,0,0,1,2-2H18a1.893,1.893,0,0,1,2,2Zm-6.667-8A4.667,4.667,0,1,1,18,4.667,4.667,4.667,0,0,1,13.333,9.333Zm0-8a3.333,3.333,0,1,0,3.333,3.333A3.334,3.334,0,0,0,13.333,1.333Zm-9,6a3,3,0,1,1,3-3A3,3,0,0,1,4.333,7.333Zm0-4.667A1.667,1.667,0,1,0,6,4.333,1.666,1.666,0,0,0,4.333,2.667ZM6,8.667V10H2s-.667.083-.667.667v4H0v-4a1.862,1.862,0,0,1,2-2Z" transform="translate(0.002)" fill="#939393" fill-rule="evenodd"/>
</svg>
