<svg xmlns="http://www.w3.org/2000/svg" width="18.376" height="21" viewBox="0 0 18.376 21">
  <g id="friend_request" transform="translate(0 -2.642)">
    <path id="Path_671" data-name="Path 671" d="M14.572,72.686a4.649,4.649,0,1,0-7.52-3.138A3.7,3.7,0,0,0,2.731,75.5,4.564,4.564,0,0,0,0,79.672v4.306a1.438,1.438,0,0,0,1.436,1.436H16.712a1.666,1.666,0,0,0,1.664-1.664V78.1A5.768,5.768,0,0,0,14.572,72.686Zm-2.889-6.864a3.23,3.23,0,1,1-3.25,3.23A3.243,3.243,0,0,1,11.682,65.822ZM5.271,70.5a2.295,2.295,0,0,1,2.245,2.837,5.8,5.8,0,0,0-1.623,1.669A2.3,2.3,0,1,1,5.271,70.5ZM1.408,83.978V79.672a3.153,3.153,0,0,1,3.149-3.149h.652a5.742,5.742,0,0,0-.22,1.579V83.75a1.672,1.672,0,0,0,.02.257H1.436a.031.031,0,0,1-.028-.028Zm15.561-.228a.26.26,0,0,1-.257.257H6.653A.26.26,0,0,1,6.4,83.75V78.1a4.355,4.355,0,0,1,4.35-4.35h1.872a4.355,4.355,0,0,1,4.35,4.35Z" transform="translate(0 -61.772)" fill="#fff"/>
  </g>
</svg>
