<svg xmlns="http://www.w3.org/2000/svg" width="22.016" height="22" viewBox="0 0 22.016 22">
  <g id="gmail" transform="translate(0.003 -0.003)">
    <path id="Path_316" data-name="Path 316" d="M117.968,98.918a6.859,6.859,0,0,0,3.044-3.535h-5.793v-4.32h10.506s.2,1.62.2,2.847-1.08,5.695-4.32,7.855Z" transform="translate(-103.909 -82.119)" fill="#518ef8" fill-rule="evenodd"/>
    <path id="Path_317" data-name="Path 317" d="M15.852,134.062s1.546,4.32,5.989,4.32a6.734,6.734,0,0,0,3.535-.884l3.535,2.946S26.53,142.9,21.645,142.9a11.084,11.084,0,0,1-9.426-6.088Z" transform="translate(-11.022 -120.896)" fill="#28b446" fill-rule="evenodd"/>
    <path id="Path_318" data-name="Path 318" d="M4.83,62.009a7.176,7.176,0,0,0,.1,4.517L1.3,69.471a11.3,11.3,0,0,1,0-10.408Z" transform="translate(0 -53.261)" fill="#fbbb00" fill-rule="evenodd"/>
    <path id="Path_319" data-name="Path 319" d="M25.474,5.409a6.008,6.008,0,0,0-3.535-.884,6.3,6.3,0,0,0-6.088,4.32L12.219,5.9S15.238.009,21.743.009a10.273,10.273,0,0,1,7.266,2.553Z" transform="translate(-11.022)" fill="#f14336" fill-rule="evenodd"/>
  </g>
</svg>
