<svg xmlns="http://www.w3.org/2000/svg" width="18" height="18" viewBox="0 0 18 18">
  <path id="help" d="M9,18a9,9,0,1,1,9-9A9,9,0,0,1,9,18Zm2.25-1.458a7.889,7.889,0,0,0,5.295-5.292h-4.32a3.979,3.979,0,0,1-.975.976Zm-1.125.247V12.766a3.786,3.786,0,0,1-2.25,0v4.023a7.444,7.444,0,0,0,2.25,0ZM6.75,16.542V12.226a3.979,3.979,0,0,1-.975-.976H1.455A7.889,7.889,0,0,0,6.75,16.542ZM1.125,9a7.891,7.891,0,0,0,.089,1.125H5.245a3.666,3.666,0,0,1-.012-2.25H1.211A7.892,7.892,0,0,0,1.125,9ZM6.75,1.455A7.889,7.889,0,0,0,1.458,6.75H5.773a3.979,3.979,0,0,1,.977-.975Zm3.375-.241A7.891,7.891,0,0,0,9,1.125a7.891,7.891,0,0,0-1.125.089V5.245A3.9,3.9,0,0,1,9,5.063a3.9,3.9,0,0,1,1.125.183ZM9,6.176A2.824,2.824,0,1,0,11.824,9,2.824,2.824,0,0,0,9,6.176Zm2.25-4.721v4.32a3.979,3.979,0,0,1,.976.975h4.316A7.889,7.889,0,0,0,11.25,1.455Zm1.516,6.42a3.666,3.666,0,0,1-.012,2.25h4.031A7.891,7.891,0,0,0,16.875,9a7.892,7.892,0,0,0-.086-1.125Z" fill="#e92100" fill-rule="evenodd"/>
</svg>
