<svg xmlns="http://www.w3.org/2000/svg" width="17.997" height="18" viewBox="0 0 17.997 18">
  <path id="home" d="M22.794,12.3l0,0L16.2,5.705a2.41,2.41,0,0,0-3.409,0L6.211,12.289,6.2,12.3a2.409,2.409,0,0,0,1.6,4.107c.025,0,.05,0,.075,0H7.485v3.769A2.824,2.824,0,0,0,10.307,23H12.03a.767.767,0,0,0,.767-.767V16.07a1.289,1.289,0,0,1,1.287-1.287h.828A1.288,1.288,0,0,1,16.2,16.07v6.162a.767.767,0,0,0,.767.767h1.724a2.824,2.824,0,0,0,2.821-2.821V16.41h-.423A2.411,2.411,0,0,0,22.794,12.3Zm-1.086,2.323a.871.871,0,0,1-.62.257h-.344a.767.767,0,0,0-.767.767v4.536a1.288,1.288,0,0,1-1.287,1.287h-.957V16.07a2.824,2.824,0,0,0-2.821-2.821h-.828a2.824,2.824,0,0,0-2.821,2.821v5.395h-.957a1.288,1.288,0,0,1-1.287-1.287V15.643a.767.767,0,0,0-.767-.767H7.929l-.036,0a.875.875,0,0,1-.6-1.495h0L13.879,6.79a.876.876,0,0,1,1.239,0L21.7,13.376l0,0a.878.878,0,0,1,0,1.238Zm0,0" transform="translate(-5.5 -4.999)" fill="#969696"/>
</svg>
