<svg xmlns="http://www.w3.org/2000/svg" xmlns:xlink="http://www.w3.org/1999/xlink" width="120" height="120" viewBox="0 0 120 120">
  <defs>
    <filter id="Ellipse_17" x="3" y="5" width="114" height="115" filterUnits="userSpaceOnUse">
      <feOffset dy="3" input="SourceAlpha"/>
      <feGaussianBlur stdDeviation="3" result="blur"/>
      <feFlood flood-opacity="0.161"/>
      <feComposite operator="in" in2="blur"/>
      <feComposite in="SourceGraphic"/>
    </filter>
  </defs>
  <g id="home_chat" transform="translate(-128 -180)">
    <ellipse id="Ellipse_11" data-name="Ellipse 11" cx="60" cy="59.5" rx="60" ry="59.5" transform="translate(128 180)" fill="rgba(255,255,255,0.15)"/>
    <g transform="matrix(1, 0, 0, 1, 128, 180)" filter="url(#Ellipse_17)">
      <ellipse id="Ellipse_17-2" data-name="Ellipse 17" cx="48" cy="48.5" rx="48" ry="48.5" transform="translate(12 11)" fill="#fff"/>
    </g>
    <path id="chat_2" d="M41,40l-7.422-1.649A14.052,14.052,0,0,1,27,40c-7.333,0-9.417-4.417-11-7a16.119,16.119,0,0,0,13-5,13.683,13.683,0,0,0,4-13s8,2.833,8,11a13.916,13.916,0,0,1-1.642,6.609ZM36,19a18.085,18.085,0,0,1-5,11,18.085,18.085,0,0,1-11,5c6.333,6.167,13,1,13,1l5,1-1-5C41.75,25.75,36,19,36,19ZM16,30a14.92,14.92,0,0,1-6.624-1.557L0,31l2.715-9.049A15,15,0,1,1,16,30ZM8,13a2,2,0,1,0,2,2A2,2,0,0,0,8,13Zm8,0a2,2,0,1,0,2,2A2,2,0,0,0,16,13Zm8,0a2,2,0,1,0,2,2A2,2,0,0,0,24,13Z" transform="translate(167 220)" fill="#4285f4" fill-rule="evenodd"/>
  </g>
</svg>
