<svg xmlns="http://www.w3.org/2000/svg" xmlns:xlink="http://www.w3.org/1999/xlink" width="297.946" height="333.36" viewBox="0 0 297.946 333.36">
  <defs>
    <linearGradient id="linear-gradient" x1="80.658" y1="-3.315" x2="81.164" y2="-3.315" gradientUnits="objectBoundingBox">
      <stop offset="0" stop-color="#ffd300"/>
      <stop offset="1" stop-color="#ecb817"/>
    </linearGradient>
    <linearGradient id="linear-gradient-2" x1="0.5" y1="1" x2="0.5" gradientUnits="objectBoundingBox">
      <stop offset="0" stop-color="#003444"/>
      <stop offset="0.217" stop-color="#00303e"/>
      <stop offset="0.495" stop-color="#00232e"/>
      <stop offset="0.806" stop-color="#000f14"/>
      <stop offset="1"/>
    </linearGradient>
    <linearGradient id="linear-gradient-3" x1="0.5" y1="0.999" x2="0.5" y2="0" xlink:href="#linear-gradient"/>
    <linearGradient id="linear-gradient-4" x1="-0.001" y1="0.501" x2="0.999" y2="0.501" xlink:href="#linear-gradient"/>
    <linearGradient id="linear-gradient-5" x1="-35.344" y1="0.501" x2="-34.344" y2="0.501" xlink:href="#linear-gradient"/>
    <linearGradient id="linear-gradient-6" x1="0.5" y1="0.001" x2="0.5" y2="1.002" gradientUnits="objectBoundingBox">
      <stop offset="0" stop-color="#00d3c1"/>
      <stop offset="0.244" stop-color="#04cdc2"/>
      <stop offset="0.558" stop-color="#0fbdc5"/>
      <stop offset="0.908" stop-color="#21a3ca"/>
      <stop offset="1" stop-color="#279bcb"/>
    </linearGradient>
    <linearGradient id="linear-gradient-7" x1="0.482" y1="1.218" x2="0.557" y2="-0.168" gradientUnits="objectBoundingBox">
      <stop offset="0" stop-color="#d236a2"/>
      <stop offset="0.145" stop-color="#cc35a4"/>
      <stop offset="0.332" stop-color="#bc33a8"/>
      <stop offset="0.541" stop-color="#a22fb0"/>
      <stop offset="0.766" stop-color="#7d2abb"/>
      <stop offset="1" stop-color="#4f23c9"/>
    </linearGradient>
  </defs>
  <g id="Image" transform="translate(-133.183 -95.511)">
    <g id="Group_297" data-name="Group 297" transform="translate(133.183 82.8)">
      <g id="Group_207" data-name="Group 207" transform="translate(179.684 227.083)">
        <circle id="Ellipse_12" data-name="Ellipse 12" cx="14.823" cy="14.823" r="14.823" fill="#e3f4ff"/>
        <g id="Group_195" data-name="Group 195" transform="translate(17.925 12.065)">
          <path id="Path_523" data-name="Path 523" d="M673.4,639.48v-.431a.553.553,0,0,0,.431-.172c.259-.259.215-.819.215-1.034l.431-.043a1.94,1.94,0,0,1-.3,1.379A1.239,1.239,0,0,1,673.4,639.48Z" transform="translate(-673.4 -637.8)" fill="#131a6d"/>
        </g>
        <g id="Group_196" data-name="Group 196" transform="translate(10.471 12.151)">
          <path id="Path_524" data-name="Path 524" d="M657.134,639.594c-1.034,0-1.034-1.207-1.034-1.594h.431c0,1.163.388,1.163.6,1.163Z" transform="translate(-656.1 -638)" fill="#131a6d"/>
        </g>
        <g id="Group_197" data-name="Group 197" transform="translate(11.074 11.72)">
          <path id="Path_525" data-name="Path 525" d="M661.163,642.559c-2.844,0-3.318-2.8-3.447-3.749l-.086-.474c-.043-.3-.086-.56-.129-.9l.431-.043c.043.345.086.6.129.9l.086.474c.388,2.327,1.336,3.4,3.016,3.4,1.767,0,2.758-1.336,3.016-4.007a9.748,9.748,0,0,0,.043-1.163h.431a9.911,9.911,0,0,1-.086,1.207C664.351,641.094,663.188,642.559,661.163,642.559Z" transform="translate(-657.5 -637)" fill="#131a6d"/>
        </g>
        <g id="Group_198" data-name="Group 198" transform="translate(15.642 9.178)">
          <path id="Path_526" data-name="Path 526" d="M672.237,634.892a10.845,10.845,0,0,1-4.137-3.576l.388-.215a10.452,10.452,0,0,0,3.964,3.4Z" transform="translate(-668.1 -631.1)" fill="#131a6d"/>
        </g>
        <g id="Group_199" data-name="Group 199" transform="translate(9.398 6.119)">
          <path id="Path_527" data-name="Path 527" d="M654.942,630.334a2,2,0,0,1-.819-.172l-.086-.043-.043-.086A5.539,5.539,0,0,1,655.33,624l.3.3a5.077,5.077,0,0,0-1.293,5.472c.259.129,1.336.431,2.2-.991,1.12-1.81,1.939-1.81,2.672-1.81a1.379,1.379,0,0,0,1.25-.474l.345.3a1.817,1.817,0,0,1-1.594.646c-.646,0-1.293,0-2.284,1.594A2.352,2.352,0,0,1,654.942,630.334Z" transform="translate(-653.611 -624)" fill="#131a6d"/>
        </g>
        <g id="Group_200" data-name="Group 200" transform="translate(12.281 15.771)">
          <path id="Path_528" data-name="Path 528" d="M662.842,651.915a2.547,2.547,0,0,1-2.542-2.542V646.7h.431v2.672a2.111,2.111,0,0,0,4.223,0V646.4h.431v2.973A2.575,2.575,0,0,1,662.842,651.915Z" transform="translate(-660.3 -646.4)" fill="#131a6d"/>
        </g>
        <g id="Group_201" data-name="Group 201" transform="translate(10.342 19.563)">
          <path id="Path_529" data-name="Path 529" d="M660.669,661.06l-.086-.043c-2.154-.56-4.783-4.05-4.783-5.817h.431c0,1.594,2.413,4.783,4.352,5.386.56-.474,3.792-3.232,3.749-5.386h.431c.043,2.542-3.835,5.688-4.007,5.817Z" transform="translate(-655.8 -655.2)" fill="#131a6d"/>
        </g>
        <g id="Group_204" data-name="Group 204" transform="translate(3.62 18.744)">
          <g id="Group_202" data-name="Group 202">
            <path id="Path_530" data-name="Path 530" d="M640.5,658.557l-.3-.3a18.567,18.567,0,0,1,8.833-4.955l.086.431A17.986,17.986,0,0,0,640.5,658.557Z" transform="translate(-640.2 -653.3)" fill="#131a6d"/>
          </g>
          <g id="Group_203" data-name="Group 203" transform="translate(13.487)">
            <path id="Path_531" data-name="Path 531" d="M680.376,657.824a17.521,17.521,0,0,0-8.876-4.094l.043-.431a17.748,17.748,0,0,1,9.135,4.223Z" transform="translate(-671.5 -653.3)" fill="#131a6d"/>
          </g>
        </g>
        <g id="Group_206" data-name="Group 206" transform="translate(1.239 2.042)">
          <g id="Group_205" data-name="Group 205">
            <path id="Path_532" data-name="Path 532" d="M639.426,634.429c-1.077-1.465-.388-3.016.129-4.223.345-.819.646-1.508.388-1.939-.3-.474-1.379-.689-3.232-.689a1.793,1.793,0,0,1-2.025-1.551c-.172-1.724,1.81-4.7,5.257-5.429,1.724-.345,2.628-1.724,3.576-3.016.991-1.422,1.982-2.844,3.878-3.016,2.456-.215,3.059.9,3.663,2.111a4.354,4.354,0,0,0,3.749,2.758c1.594.259,2.542.732,2.93,1.465.517,1.077-.259,2.456-1.034,3.792-1.163,2.068-1.81,3.447-.258,4.352,1.68.991,2.5,1.939,2.37,2.844-.129,1.25-1.939,1.9-2.025,1.939l-.129-.388s1.637-.56,1.724-1.551c.086-.733-.689-1.551-2.2-2.413-2.025-1.207-.9-3.189.129-4.955.689-1.25,1.422-2.5,1.034-3.361-.3-.6-1.12-1.034-2.585-1.25a4.709,4.709,0,0,1-4.05-2.973c-.6-1.163-1.077-2.068-3.275-1.853-1.724.129-2.628,1.465-3.576,2.844s-1.939,2.8-3.835,3.189c-3.189.646-5.085,3.4-4.912,4.955.086.776.6,1.163,1.594,1.163,2.068,0,3.189.259,3.577.9.388.6.043,1.422-.345,2.327-.517,1.206-1.12,2.542-.172,3.792Z" transform="translate(-634.676 -614.538)" fill="#131a6d"/>
          </g>
        </g>
      </g>
      <g id="Group_221" data-name="Group 221" transform="translate(215.621 12.711)">
        <path id="Path_544" data-name="Path 544" d="M719.294,120.487a4.094,4.094,0,1,1,4.094-4.094A4.12,4.12,0,0,1,719.294,120.487Zm0-7.756a3.663,3.663,0,1,0,3.663,3.663A3.66,3.66,0,0,0,719.294,112.731Z" transform="translate(-715.2 -112.3)" fill="#2d32e2"/>
      </g>
      <g id="Group_222" data-name="Group 222" transform="translate(0 88.162)">
        <path id="Path_545" data-name="Path 545" d="M218.98,295.759l-4.18-4.18,4.18-4.18,4.18,4.18Zm-3.576-4.18,3.576,3.576,3.576-3.576L218.98,288Z" transform="translate(-214.8 -287.4)" fill="#2d32e2"/>
      </g>
      <g id="Group_223" data-name="Group 223" transform="translate(284.726 152.408)">
        <path id="Path_546" data-name="Path 546" d="M881.618,446.841l-.129-.172s-3.792-3.835-5.042-5.128a2.939,2.939,0,0,1,0-4.18,2.913,2.913,0,0,1,4.137,0c.215.258.819.819,1.12,1.12l.948-.948a2.913,2.913,0,0,1,4.137,0,2.939,2.939,0,0,1,0,4.18Zm-3.1-9.867a2.441,2.441,0,0,0-1.767.732,2.523,2.523,0,0,0,0,3.576c1.12,1.12,4.18,4.223,4.912,4.955l4.869-4.783a2.521,2.521,0,0,0-1.766-4.309,2.44,2.44,0,0,0-1.767.733l-1.293,1.25-.129-.172-1.25-1.25a2.54,2.54,0,0,0-1.81-.732Z" transform="translate(-875.575 -436.5)" fill="#d236a2"/>
      </g>
      <g id="Group_228" data-name="Group 228" transform="translate(255.479 95.18)">
        <g id="Group_225" data-name="Group 225" transform="translate(0.948)">
          <g id="Group_224" data-name="Group 224">
            <path id="Path_547" data-name="Path 547" d="M833.815,258.4s-11.548-4.137-19.606,3.4c-5.042,4.74-4.266,12.582-4.266,12.582C817.4,275.554,824.766,259.827,833.815,258.4Z" transform="translate(-809.9 -257.272)" fill="#279bcb"/>
          </g>
        </g>
        <g id="Group_227" data-name="Group 227" transform="translate(0 2.985)">
          <g id="Group_226" data-name="Group 226">
            <path id="Path_548" data-name="Path 548" d="M807.786,284.668c-.733-7.024,3.189-13.358,12.625-20.468l.259.345c-9.307,7.024-13.142,13.185-12.453,20.08Z" transform="translate(-807.7 -264.2)" fill="#131a6d"/>
          </g>
        </g>
      </g>
      <g id="Group_232" data-name="Group 232" transform="translate(42.809 79.895)">
        <g id="Group_229" data-name="Group 229" transform="translate(2.843 16.029)">
          <path id="Path_549" data-name="Path 549" d="M321.889,276.193c-2.025-5.989-1.594-14.047,3.189-17.193l.215.345c-4.611,3.016-5,10.859-3.016,16.719Z" transform="translate(-320.745 -259)" fill="#131a6d"/>
        </g>
        <g id="Group_230" data-name="Group 230">
          <path id="Path_550" data-name="Path 550" d="M322.745,229.039c8.316-3.1,12.108-7.239,12.108-7.239-8.618,18.055-14.478,14.78-17.494,25.121C317.359,246.921,307.319,234.813,322.745,229.039Z" transform="translate(-314.148 -221.8)" fill="#131a6d"/>
        </g>
        <g id="Group_231" data-name="Group 231" transform="translate(1.72)">
          <path id="Path_551" data-name="Path 551" d="M323.078,237.054s-2.973-3.964-4.309-.215c-1.81,5.128.862,10.083.862,10.083,2.5-8.316,12.755-9.221,17.494-25.121C329.025,234.037,324.63,226.2,323.078,237.054Z" transform="translate(-318.14 -221.8)" fill="#279bcb"/>
        </g>
      </g>
      <g id="Group_237" data-name="Group 237" transform="translate(181.107 40)">
        <g id="Group_233" data-name="Group 233" transform="translate(10.818 22.794)">
          <path id="Path_552" data-name="Path 552" d="M653.374,150.566c-4.05-2.284-11.548-7.2-16.374-14.651l.345-.215c4.783,7.411,12.237,12.281,16.245,14.521Z" transform="translate(-637 -135.7)" fill="#131a6d"/>
        </g>
        <g id="Group_234" data-name="Group 234" transform="translate(0 0.129)">
          <path id="Path_553" data-name="Path 553" d="M622.669,113.478s-6.679-1.163-5.86-9.221c1.465-14.306-4.74-21.157-4.74-21.157-2.025,16.46,14.09,28.569,21.329,33.567C633.4,116.624,622.756,120.157,622.669,113.478Z" transform="translate(-611.895 -83.1)" fill="#131a6d"/>
        </g>
        <g id="Group_235" data-name="Group 235" transform="translate(0.175 0.043)">
          <path id="Path_554" data-name="Path 554" d="M620.7,105.436c-1.25-.646-6.55-4.481-5.946-7.325C617.729,84.839,612.3,82.9,612.3,82.9c6.507,12.108,12.841,27.147,21.329,33.567,0,0-8.144-1.12-12.367-6.2A4.128,4.128,0,0,1,620.7,105.436Z" transform="translate(-612.3 -82.9)" fill="url(#linear-gradient)"/>
        </g>
        <g id="Group_236" data-name="Group 236" transform="translate(0.218)">
          <path id="Path_555" data-name="Path 555" d="M612.4,82.8a42.609,42.609,0,0,0,3.275,6.291A13.152,13.152,0,0,0,612.4,82.8Z" transform="translate(-612.4 -82.8)" fill="#131a6d"/>
        </g>
      </g>
      <g id="Group_238" data-name="Group 238" transform="translate(122.246 59.248)">
        <path id="Path_556" data-name="Path 556" d="M515.133,222.239a2.3,2.3,0,0,1-1.767-.819,1.933,1.933,0,0,0-1.508-.689,2,2,0,0,0-1.508.689,2.374,2.374,0,0,1-1.767.819,2.3,2.3,0,0,1-1.767-.819,1.933,1.933,0,0,0-1.508-.689,2,2,0,0,0-1.508.689,2.374,2.374,0,0,1-1.767.819,2.756,2.756,0,0,1-1.9-.776,2.591,2.591,0,0,0-1.637-.689v-.431a2.756,2.756,0,0,1,1.9.776,2.59,2.59,0,0,0,1.637.689,2,2,0,0,0,1.508-.689,2.374,2.374,0,0,1,1.767-.819,2.3,2.3,0,0,1,1.767.819,1.933,1.933,0,0,0,1.508.689,2,2,0,0,0,1.508-.689,2.374,2.374,0,0,1,1.767-.819,2.3,2.3,0,0,1,1.767.819,1.933,1.933,0,0,0,1.508.689,2,2,0,0,0,1.508-.689,2.374,2.374,0,0,1,1.767-.819v.431a2,2,0,0,0-1.508.689A2.3,2.3,0,0,1,515.133,222.239Z" transform="translate(-498.5 -220.3)" fill="#d236a2"/>
      </g>
      <g id="Group_245" data-name="Group 245" transform="translate(155.123 116.213)">
        <g id="Group_239" data-name="Group 239">
          <path id="Path_557" data-name="Path 557" d="M621.983,387.877H574.8l5.3-7.325V359.739a7.227,7.227,0,0,1,7.239-7.239h34.6a7.227,7.227,0,0,1,7.239,7.239v20.855A7.2,7.2,0,0,1,621.983,387.877Zm-46.321-.431h46.321a6.823,6.823,0,0,0,6.808-6.808V359.782a6.823,6.823,0,0,0-6.808-6.808h-34.6a6.823,6.823,0,0,0-6.808,6.808v20.942Z" transform="translate(-574.8 -352.5)" fill="#131a6d"/>
        </g>
        <g id="Group_240" data-name="Group 240" transform="translate(25.208 9.997)">
          <rect id="Rectangle_56" data-name="Rectangle 56" width="20.726" height="0.431" fill="#131a6d"/>
        </g>
        <g id="Group_241" data-name="Group 241" transform="translate(14.607 9.997)">
          <rect id="Rectangle_57" data-name="Rectangle 57" width="8.403" height="0.431" fill="#131a6d"/>
        </g>
        <g id="Group_242" data-name="Group 242" transform="translate(14.607 17.408)">
          <rect id="Rectangle_58" data-name="Rectangle 58" width="31.326" height="0.431" fill="#131a6d"/>
        </g>
        <g id="Group_243" data-name="Group 243" transform="translate(35.506 24.82)">
          <rect id="Rectangle_59" data-name="Rectangle 59" width="10.471" height="0.431" fill="#131a6d"/>
        </g>
        <g id="Group_244" data-name="Group 244" transform="translate(14.607 24.82)">
          <rect id="Rectangle_60" data-name="Rectangle 60" width="18.572" height="0.431" fill="#131a6d"/>
        </g>
      </g>
      <g id="Group_258" data-name="Group 258" transform="translate(110.094 119.1)">
        <circle id="Ellipse_13" data-name="Ellipse 13" cx="14.823" cy="14.823" r="14.823" fill="#e3f4ff"/>
        <g id="Group_246" data-name="Group 246" transform="translate(9.824 12.367)">
          <path id="Path_558" data-name="Path 558" d="M495.772,392.812c-1.853-.3-2.413-2.93-2.672-4.869l.431-.043c.259,1.81.776,4.266,2.327,4.524Z" transform="translate(-493.1 -387.9)" fill="#131a6d"/>
        </g>
        <g id="Group_247" data-name="Group 247" transform="translate(17.064 12.41)">
          <path id="Path_559" data-name="Path 559" d="M509.9,392.869v-.431c.215,0,.776-.3,1.293-1.163a5.941,5.941,0,0,0,.9-3.275h.431a6.828,6.828,0,0,1-.948,3.49C511.063,392.352,510.417,392.869,509.9,392.869Z" transform="translate(-509.9 -388)" fill="#131a6d"/>
        </g>
        <g id="Group_248" data-name="Group 248" transform="translate(10.668 12.022)">
          <path id="Path_560" data-name="Path 560" d="M496.11,388.78a.888.888,0,0,1-.733-.3,1.941,1.941,0,0,1-.3-1.379l.431.043a1.378,1.378,0,0,0,.215,1.034.454.454,0,0,0,.431.172v.431Z" transform="translate(-495.058 -387.1)" fill="#131a6d"/>
        </g>
        <g id="Group_249" data-name="Group 249" transform="translate(18.098 12.108)">
          <path id="Path_561" data-name="Path 561" d="M512.3,388.894v-.431c.172,0,.6,0,.6-1.163h.431C513.334,387.731,513.334,388.894,512.3,388.894Z" transform="translate(-512.3 -387.3)" fill="#131a6d"/>
        </g>
        <g id="Group_250" data-name="Group 250" transform="translate(11.333 11.677)">
          <path id="Path_562" data-name="Path 562" d="M500.133,391.9c-1.982,0-3.146-1.465-3.447-4.4-.043-.345-.043-.819-.086-1.206h.431c0,.388.043.862.043,1.163.3,2.715,1.293,4.007,3.016,4.007,1.68,0,2.628-1.077,3.016-3.4l.086-.517c.043-.345.129-.689.172-1.034l.431.043c-.043.345-.129.689-.172,1.077l-.086.517C503.451,389.1,502.977,391.9,500.133,391.9Z" transform="translate(-496.6 -386.3)" fill="#131a6d"/>
        </g>
        <g id="Group_251" data-name="Group 251" transform="translate(9.717 6.033)">
          <path id="Path_563" data-name="Path 563" d="M492.958,379.75l-.043-.215c-.043-.215-.6-5.559,2.585-6.334l.086.431c-2.5.56-2.37,4.568-2.284,5.6a5.736,5.736,0,0,0,2.327-1.594,3.358,3.358,0,0,0,.776-1.465h.431a3.568,3.568,0,0,1-.9,1.767,5.122,5.122,0,0,1-2.8,1.767Z" transform="translate(-492.851 -373.2)" fill="#131a6d"/>
        </g>
        <g id="Group_252" data-name="Group 252" transform="translate(12.082 4.909)">
          <path id="Path_564" data-name="Path 564" d="M506.553,378.524l-.215-.043a15.18,15.18,0,0,1-4.481-1.982q-3.232-2-3.49-3.62a1.469,1.469,0,0,1,.388-1.293,3.4,3.4,0,0,1,2.715-.991,5.663,5.663,0,0,1,4.309,2.2c1.293,1.767.9,5.343.862,5.472Zm-5.343-7.5a2.924,2.924,0,0,0-2.2.819,1.153,1.153,0,0,0-.3.948c.086.646.776,1.724,3.275,3.318a17.817,17.817,0,0,0,4.137,1.9c.043-.819.172-3.576-.819-4.955a5.282,5.282,0,0,0-3.964-2.025Z" transform="translate(-498.34 -370.592)" fill="#131a6d"/>
        </g>
        <g id="Group_253" data-name="Group 253" transform="translate(12.281 15.771)">
          <path id="Path_565" data-name="Path 565" d="M501.342,401.316a2.547,2.547,0,0,1-2.542-2.542V395.8h.431v2.973a2.111,2.111,0,0,0,4.223,0V396.1h.431v2.672A2.575,2.575,0,0,1,501.342,401.316Z" transform="translate(-498.8 -395.8)" fill="#131a6d"/>
        </g>
        <g id="Group_254" data-name="Group 254" transform="translate(10.342 19.52)">
          <path id="Path_566" data-name="Path 566" d="M498.781,407.775c-2.456,0-4.481-1.465-4.481-3.275h.431c0,1.551,1.81,2.844,4.05,2.844s4.05-1.25,4.05-2.844h.431C503.263,406.31,501.237,407.775,498.781,407.775Z" transform="translate(-494.3 -404.5)" fill="#131a6d"/>
        </g>
        <g id="Group_257" data-name="Group 257" transform="translate(3.361 18.744)">
          <g id="Group_255" data-name="Group 255" transform="translate(13.703)">
            <path id="Path_567" data-name="Path 567" d="M518.518,407.957a17.986,17.986,0,0,0-8.618-4.826l.086-.431a18.568,18.568,0,0,1,8.833,4.955Z" transform="translate(-509.9 -402.7)" fill="#131a6d"/>
          </g>
          <g id="Group_256" data-name="Group 256" transform="translate(0 0)">
            <path id="Path_568" data-name="Path 568" d="M478.4,407.224l-.3-.3c3.749-3.576,9.092-4.18,9.135-4.223l.043.431A16.97,16.97,0,0,0,478.4,407.224Z" transform="translate(-478.1 -402.7)" fill="#131a6d"/>
          </g>
        </g>
      </g>
      <g id="Group_265" data-name="Group 265" transform="translate(155.123 271.121)">
        <g id="Group_259" data-name="Group 259">
          <path id="Path_569" data-name="Path 569" d="M621.983,747.377H574.8l5.3-7.325V719.239A7.227,7.227,0,0,1,587.339,712h34.6a7.227,7.227,0,0,1,7.239,7.239v20.855A7.227,7.227,0,0,1,621.983,747.377Zm-46.321-.431h46.321a6.823,6.823,0,0,0,6.808-6.808V719.282a6.823,6.823,0,0,0-6.808-6.808h-34.6a6.823,6.823,0,0,0-6.808,6.808v20.942Z" transform="translate(-574.8 -712)" fill="#131a6d"/>
        </g>
        <g id="Group_260" data-name="Group 260" transform="translate(25.208 9.954)">
          <rect id="Rectangle_61" data-name="Rectangle 61" width="20.726" height="0.431" fill="#131a6d"/>
        </g>
        <g id="Group_261" data-name="Group 261" transform="translate(14.607 9.954)">
          <rect id="Rectangle_62" data-name="Rectangle 62" width="8.403" height="0.431" fill="#131a6d"/>
        </g>
        <g id="Group_262" data-name="Group 262" transform="translate(14.607 17.408)">
          <rect id="Rectangle_63" data-name="Rectangle 63" width="31.326" height="0.431" fill="#131a6d"/>
        </g>
        <g id="Group_263" data-name="Group 263" transform="translate(35.506 24.82)">
          <rect id="Rectangle_64" data-name="Rectangle 64" width="10.471" height="0.431" fill="#131a6d"/>
        </g>
        <g id="Group_264" data-name="Group 264" transform="translate(14.607 24.82)">
          <rect id="Rectangle_65" data-name="Rectangle 65" width="18.572" height="0.431" fill="#131a6d"/>
        </g>
      </g>
      <g id="Group_278" data-name="Group 278" transform="translate(110.094 274.008)">
        <circle id="Ellipse_14" data-name="Ellipse 14" cx="14.823" cy="14.823" r="14.823" fill="#e3f4ff"/>
        <g id="Group_266" data-name="Group 266" transform="translate(9.824 12.367)">
          <path id="Path_570" data-name="Path 570" d="M495.772,752.312c-1.853-.3-2.413-2.93-2.672-4.869l.431-.043c.259,1.81.776,4.266,2.327,4.524Z" transform="translate(-493.1 -747.4)" fill="#131a6d"/>
        </g>
        <g id="Group_267" data-name="Group 267" transform="translate(17.064 12.41)">
          <path id="Path_571" data-name="Path 571" d="M509.9,752.369v-.431c.215,0,.776-.3,1.293-1.163a5.941,5.941,0,0,0,.9-3.275h.431a6.828,6.828,0,0,1-.948,3.49C511.063,751.809,510.417,752.369,509.9,752.369Z" transform="translate(-509.9 -747.5)" fill="#131a6d"/>
        </g>
        <g id="Group_268" data-name="Group 268" transform="translate(10.668 12.022)">
          <path id="Path_572" data-name="Path 572" d="M496.11,748.28a.888.888,0,0,1-.733-.3,1.941,1.941,0,0,1-.3-1.379l.431.043a1.377,1.377,0,0,0,.215,1.034.454.454,0,0,0,.431.172v.431Z" transform="translate(-495.058 -746.6)" fill="#131a6d"/>
        </g>
        <g id="Group_269" data-name="Group 269" transform="translate(18.098 12.108)">
          <path id="Path_573" data-name="Path 573" d="M512.3,748.394v-.431c.172,0,.6,0,.6-1.163h.431C513.334,747.188,513.334,748.394,512.3,748.394Z" transform="translate(-512.3 -746.8)" fill="#131a6d"/>
        </g>
        <g id="Group_270" data-name="Group 270" transform="translate(11.333 11.677)">
          <path id="Path_574" data-name="Path 574" d="M500.133,751.4c-1.982,0-3.146-1.465-3.447-4.4-.043-.345-.043-.819-.086-1.207h.431c0,.388.043.862.043,1.163.3,2.715,1.293,4.007,3.016,4.007,1.68,0,2.628-1.077,3.016-3.4l.086-.517c.043-.345.129-.689.172-1.034l.431.043c-.043.345-.129.689-.172,1.077l-.086.517C503.451,748.558,502.977,751.4,500.133,751.4Z" transform="translate(-496.6 -745.8)" fill="#131a6d"/>
        </g>
        <g id="Group_271" data-name="Group 271" transform="translate(9.717 6.033)">
          <path id="Path_575" data-name="Path 575" d="M492.958,739.25l-.043-.216c-.043-.215-.6-5.559,2.585-6.334l.086.431c-2.5.56-2.37,4.568-2.284,5.6a5.736,5.736,0,0,0,2.327-1.594,3.357,3.357,0,0,0,.776-1.465h.431a3.568,3.568,0,0,1-.9,1.767,5.122,5.122,0,0,1-2.8,1.767Z" transform="translate(-492.851 -732.7)" fill="#131a6d"/>
        </g>
        <g id="Group_272" data-name="Group 272" transform="translate(12.082 4.909)">
          <path id="Path_576" data-name="Path 576" d="M506.553,738.024l-.215-.043A15.18,15.18,0,0,1,501.856,736q-3.232-2-3.49-3.62a1.469,1.469,0,0,1,.388-1.293,3.4,3.4,0,0,1,2.715-.991,5.663,5.663,0,0,1,4.309,2.2c1.293,1.767.9,5.343.862,5.473Zm-5.343-7.5a2.924,2.924,0,0,0-2.2.819,1.153,1.153,0,0,0-.3.948c.086.646.776,1.724,3.275,3.318a17.818,17.818,0,0,0,4.137,1.9c.043-.819.172-3.576-.819-4.955a5.282,5.282,0,0,0-3.964-2.025Z" transform="translate(-498.34 -730.092)" fill="#131a6d"/>
        </g>
        <g id="Group_273" data-name="Group 273" transform="translate(12.281 15.728)">
          <path id="Path_577" data-name="Path 577" d="M501.342,760.715a2.547,2.547,0,0,1-2.542-2.542V755.2h.431v2.973a2.111,2.111,0,0,0,4.223,0V755.5h.431v2.672A2.547,2.547,0,0,1,501.342,760.715Z" transform="translate(-498.8 -755.2)" fill="#131a6d"/>
        </g>
        <g id="Group_274" data-name="Group 274" transform="translate(10.342 19.52)">
          <path id="Path_578" data-name="Path 578" d="M498.781,767.275c-2.456,0-4.481-1.465-4.481-3.275h.431c0,1.551,1.81,2.844,4.05,2.844s4.05-1.25,4.05-2.844h.431C503.263,765.81,501.237,767.275,498.781,767.275Z" transform="translate(-494.3 -764)" fill="#131a6d"/>
        </g>
        <g id="Group_277" data-name="Group 277" transform="translate(3.361 18.744)">
          <g id="Group_275" data-name="Group 275" transform="translate(13.703)">
            <path id="Path_579" data-name="Path 579" d="M518.518,767.457a17.986,17.986,0,0,0-8.618-4.826l.086-.431a18.568,18.568,0,0,1,8.833,4.955Z" transform="translate(-509.9 -762.2)" fill="#131a6d"/>
          </g>
          <g id="Group_276" data-name="Group 276">
            <path id="Path_580" data-name="Path 580" d="M478.4,766.724l-.3-.3c3.749-3.576,9.092-4.18,9.135-4.223l.043.431A16.97,16.97,0,0,0,478.4,766.724Z" transform="translate(-478.1 -762.2)" fill="#131a6d"/>
          </g>
        </g>
      </g>
      <g id="Group_284" data-name="Group 284" transform="translate(109.879 227.902)">
        <g id="Group_279" data-name="Group 279">
          <path id="Path_581" data-name="Path 581" d="M524.179,639.708h-47.14a7.227,7.227,0,0,1-7.239-7.239v-13.53a7.227,7.227,0,0,1,7.239-7.239h34.6a7.227,7.227,0,0,1,7.239,7.239v13.487Zm-47.14-27.578a6.823,6.823,0,0,0-6.808,6.808v13.53a6.823,6.823,0,0,0,6.808,6.808h46.322l-4.869-6.722V618.939a6.823,6.823,0,0,0-6.808-6.808H477.039Z" transform="translate(-469.8 -611.7)" fill="#131a6d"/>
        </g>
        <g id="Group_280" data-name="Group 280" transform="translate(8.446 9.954)">
          <rect id="Rectangle_66" data-name="Rectangle 66" width="20.726" height="0.431" fill="#131a6d"/>
        </g>
        <g id="Group_281" data-name="Group 281" transform="translate(31.412 9.954)">
          <rect id="Rectangle_67" data-name="Rectangle 67" width="8.403" height="0.431" fill="#131a6d"/>
        </g>
        <g id="Group_282" data-name="Group 282" transform="translate(8.446 17.494)">
          <rect id="Rectangle_68" data-name="Rectangle 68" width="10.471" height="0.431" fill="#131a6d"/>
        </g>
        <g id="Group_283" data-name="Group 283" transform="translate(21.2 17.494)">
          <rect id="Rectangle_69" data-name="Rectangle 69" width="18.572" height="0.431" fill="#131a6d"/>
        </g>
      </g>
      <path id="Path_582" data-name="Path 582" d="M550.015,270.5H423.8A11.53,11.53,0,0,0,412.3,282V517.447A11.53,11.53,0,0,0,423.8,528.952h126.21a11.53,11.53,0,0,0,11.505-11.505V282A11.5,11.5,0,0,0,550.015,270.5Zm5.257,244.965a6.39,6.39,0,0,1-6.377,6.377H424.882a6.39,6.39,0,0,1-6.377-6.377V283.944a6.39,6.39,0,0,1,6.377-6.377l35.506.043.6,3.878a6.614,6.614,0,0,0,6.507,5.559h39.987a6.612,6.612,0,0,0,6.507-5.472l.689-4.007h34.213a6.39,6.39,0,0,1,6.377,6.377Z" transform="translate(-327.198 -189.62)" fill="#131a6d"/>
      <circle id="Ellipse_15" data-name="Ellipse 15" cx="2.844" cy="2.844" r="2.844" transform="translate(172.747 87.774)" fill="#ffc200"/>
      <rect id="Rectangle_70" data-name="Rectangle 70" width="39.599" height="49.596" transform="translate(110.094 164.344)" fill="#e3f4ff"/>
      <rect id="Rectangle_71" data-name="Rectangle 71" width="19.778" height="23.872" transform="translate(151.374 164.344)" fill="#e3f4ff"/>
      <rect id="Rectangle_72" data-name="Rectangle 72" width="19.778" height="23.958" transform="translate(151.374 190.069)" fill="#e3f4ff"/>
      <g id="Group_289" data-name="Group 289" transform="translate(26.536 206.831)">
        <path id="Path_583" data-name="Path 583" d="M365.356,866.547s-6.033.689-8.187.689c-3.447,0-7.411,0-11.031-1.551a1.136,1.136,0,0,1,.215-2.068c1.034-.3,8.532-2.973,10.04-3.232a38.446,38.446,0,0,1,7.584-.431Z" transform="translate(-315.753 -731.892)" fill="#ffc200"/>
        <path id="Path_584" data-name="Path 584" d="M322.1,778.19c-7.153,1.12-28.7,2.155-28.7,2.155s38.867,30.938,47.356,30.938c9.394,0,45.417-22.838,45.417-22.838s-22.794-6.55-29.9-8.618C347.952,777.415,330.716,776.9,322.1,778.19Z" transform="translate(-286.068 -684.987)" fill="#131a6d"/>
        <path id="Path_585" data-name="Path 585" d="M376.357,587.232c.9-6.377-.474-11.031-6.119-13.616-4.869-2.2-9.307-.862-11.031-2.025-3.533-2.413-6.981-8.79-17.451-8.79-5.6,0-13.013,4.524-17.279,10.255-5.257,7.11-7.153,8.316-14.694,8.92-13.358,1.034-19.347,13.832-1.293,21.157,4.524,1.853,9.652,3.447,12.065,13.272,4.7,19.261,27.879,12.582,27.879,12.582s7.885-4.912,11.807-9.178c6.162-6.636,17.925-2.284,23.484-5.645C395.144,607.269,381.614,592.7,376.357,587.232Z" transform="translate(-288.232 -562.8)" fill="url(#linear-gradient-2)"/>
        <path id="Path_586" data-name="Path 586" d="M388.926,673.617c-5.429-4.654-22.364-3.576-23.225-3.361-5.688,1.465-9.049,5.645-7.842,12.108,1.25,6.894-6.033,30.335.6,34.429,8.876,5.472,30.292,1.81,33.955-6.894C395.174,703.263,395.088,678.917,388.926,673.617Z" transform="translate(-321.484 -623.805)" fill="url(#linear-gradient-3)"/>
        <path id="Path_587" data-name="Path 587" d="M399.448,669.444c-1.508-.689-6.42-.474-6.679-.431-2.629.733-2.629,3.576-.69,4.955a7.127,7.127,0,0,0,7.885.129A2.686,2.686,0,0,0,399.448,669.444Z" transform="translate(-341.443 -623.209)" fill="#131a6d"/>
        <path id="Path_588" data-name="Path 588" d="M386.761,645.1c.259-.776,1.163-.776,1.982-.172.689.474.388,2.887-.776,2.8C386.761,647.557,386.287,646.393,386.761,645.1Z" transform="translate(-339.096 -609.293)" fill="#d86689"/>
        <path id="Path_589" data-name="Path 589" d="M394.9,657.825c-.3-3.835-.215-9.781.733-11.2,1.379-1.982,7.584-1.853,7.239.9-.258,2.025-.6,9.221-.776,10.772C401.833,660.454,395.111,660.583,394.9,657.825Z" transform="translate(-343.741 -609.737)" fill="#ff8aa9"/>
        <path id="Path_590" data-name="Path 590" d="M402.373,658.288l-.388,3.792c-1.034,2.37-2.629,2.413-4.094,2.284-1.939-.172-2.93-1.594-3.533-3.232L394.1,657.9Z" transform="translate(-343.377 -616.922)" fill="#d86689"/>
        <path id="Path_591" data-name="Path 591" d="M403.158,656.4l-.517,3.964c-.991,1.25-1.982,2.327-4.524,1.81a3.95,3.95,0,0,1-3.016-2.542l.259-3.189Z" transform="translate(-343.946 -616.068)" fill="#131a6d"/>
        <path id="Path_592" data-name="Path 592" d="M391.566,624.268c1.508-1.724,6.55-3.749,9.35-.129,2.284,2.973,2.111,7.239,1.508,10.471-.689,3.447-2.8,7.8-6.894,7.455-4.309-.388-5.3-4.094-5.515-7.325C389.713,630.947,389.11,627.068,391.566,624.268Z" transform="translate(-340.886 -596.561)" fill="#ff8aa9"/>
        <path id="Path_593" data-name="Path 593" d="M402.363,652.2c-.689,2.241-1.379,1.767-1.465,2.327-.043.431,1.12.948,1.551.733C403.613,654.741,402.536,651.6,402.363,652.2Z" transform="translate(-347.245 -613.633)" fill="#ef6295"/>
        <path id="Path_594" data-name="Path 594" d="M417.137,647.185c.431-1.164,1.422-1.594,2.068-.862.56.6-.215,3.232-1.379,3.232C417.094,649.555,416.663,648.478,417.137,647.185Z" transform="translate(-356.374 -610.128)" fill="#d86689"/>
        <path id="Path_595" data-name="Path 595" d="M383.365,623.967c2.154-4.481,8.618-1.422,5.386,2.5-.9,1.077-2.585.431-2.8,2.8-.259,2.672-1.336,3.835-2.068,4.18-2.37,1.077-4.654-1.594-2.456-3.835C382.848,628.19,382.46,625.82,383.365,623.967Z" transform="translate(-335.658 -596.347)" fill="#003444"/>
        <path id="Path_596" data-name="Path 596" d="M407.707,628.806c.819-2.284,1.336-4.568-1.034-5.731-3.49-1.68-.819-3.792-4.309-4.309-3.749-.56-5.3,1.379-7.627,1.336-1.25-.043-2.2-.215-1.034,1.293,1.336,1.724.9,6.851,5.257,8.359a32.24,32.24,0,0,0,4.266,1.077c2.284.388.819,3.878,1.939,3.835C405.9,634.709,409.3,631.477,407.707,628.806Z" transform="translate(-342.85 -594.592)" fill="#003444"/>
        <path id="Path_597" data-name="Path 597" d="M384.485,722.491c-.258-5.085.474-14.564.474-14.564a34.781,34.781,0,0,1-4.18-11.289c-1.379-10.3-1.293-22.579-3.1-24.82-1.508-1.853-4.438-1.982-4.438-1.982s3.62,21.028-9.868,18.916c-11.462-1.81-5.731-20.252-5.731-20.252l-5.386,1.379s-.517,15.469-3.706,21.933a40.837,40.837,0,0,1-3.663,5.386,60.675,60.675,0,0,1-7.282,23.484c-3.835,6.937,7.8,7.885,15.642,8.747l16.2,1.767C378.452,732.144,384.959,731.5,384.485,722.491Z" transform="translate(-310.795 -622.954)" fill="#131a6d"/>
        <path id="Path_598" data-name="Path 598" d="M403.309,662.289c.215.215,1.034-.043,1.034-.689C404.3,661.6,402.921,661.9,403.309,662.289Z" transform="translate(-348.578 -619.027)" fill="#131a6d"/>
        <path id="Path_599" data-name="Path 599" d="M398.125,648.688c.172-.172-.733-.646-1.336-.517a1.2,1.2,0,0,0-.689.6,1.781,1.781,0,0,1,1.034-.129C397.565,648.688,398.039,648.817,398.125,648.688Z" transform="translate(-344.515 -611.372)" fill="#131a6d"/>
        <path id="Path_600" data-name="Path 600" d="M408.272,648.688c-.172-.172.733-.646,1.336-.517a1.2,1.2,0,0,1,.689.6,1.781,1.781,0,0,0-1.034-.129C408.832,648.688,408.358,648.817,408.272,648.688Z" transform="translate(-351.429 -611.372)" fill="#131a6d"/>
        <path id="Path_601" data-name="Path 601" d="M397.893,650.436a.39.39,0,0,1,.776.086c-.043.215-.172.259-.388.259S397.849,650.651,397.893,650.436Z" transform="translate(-345.532 -612.474)" fill="#131a6d"/>
        <path id="Path_602" data-name="Path 602" d="M409.7,650.531a.41.41,0,1,1,.819-.043c0,.215-.172.3-.388.345C409.872,650.832,409.7,650.746,409.7,650.531Z" transform="translate(-352.255 -612.483)" fill="#131a6d"/>
        <g id="Group_285" data-name="Group 285" transform="translate(44.709 69.305)">
          <path id="Path_603" data-name="Path 603" d="M387.923,736.85v-.431c5.946,0,8.618-3.016,9.781-5.516,1.293-2.8,1.12-5.774.431-6.593a.4.4,0,0,0-.388-.172c-7.972,2.025-11.936,1.163-14.306.646a5.386,5.386,0,0,0-2.37-.215s-.129.043-.259.431c-.431,1.422-.345,5.429,1.465,7.67l-.345.259c-1.939-2.413-2.025-6.55-1.551-8.058.129-.431.3-.646.517-.733a5.537,5.537,0,0,1,2.585.172c2.327.517,6.248,1.336,14.09-.646a.81.81,0,0,1,.819.3c.776.948.991,4.094-.388,7.067C397.058,733.231,394.386,736.85,387.923,736.85Z" transform="translate(-380.141 -723.638)" fill="#fff"/>
        </g>
        <g id="Group_286" data-name="Group 286" transform="translate(46.673 70.452)">
          <path id="Path_604" data-name="Path 604" d="M391.034,728.842a19.4,19.4,0,0,1-6.334-.862l.172-.388c2.715,1.034,10.083,1.637,18.27-1.293l.129.388A37.591,37.591,0,0,1,391.034,728.842Z" transform="translate(-384.7 -726.3)" fill="#fff"/>
        </g>
        <g id="Group_287" data-name="Group 287" transform="translate(51.241 28.095)">
          <path id="Path_605" data-name="Path 605" d="M402.5,635.842a6.424,6.424,0,0,1-3.663-1.163c-1.81-1.293-3.016-3.49-3.533-6.593l.431-.086c.517,2.973,1.637,5.128,3.361,6.334a5.974,5.974,0,0,0,4.05,1.034l.086.431A6.66,6.66,0,0,1,402.5,635.842Z" transform="translate(-395.3 -628)" fill="#131a6d"/>
        </g>
        <g id="Group_288" data-name="Group 288" transform="translate(53.826 28.612)">
          <path id="Path_606" data-name="Path 606" d="M406.126,634.457a4.406,4.406,0,0,1-2.456-.776,6.438,6.438,0,0,1-2.37-4.4l.431-.086a6.111,6.111,0,0,0,2.2,4.137,3.889,3.889,0,0,0,2.629.689l.086.431Z" transform="translate(-401.3 -629.2)" fill="#131a6d"/>
        </g>
        <path id="Path_607" data-name="Path 607" d="M334.206,728.227l.3-.259a4.895,4.895,0,0,0,.172-7.325c-3.792-3.533-8.833-8.876-9.049-12.151-.172-3.016,4.783-10.342,4.783-10.342s3.878-20.037,6.248-25.25c-15.168,6.032-29.215,25.078-26.974,38.221,1.163,6.808,13.185,14.349,18.916,17.624A4.879,4.879,0,0,0,334.206,728.227Z" transform="translate(-295.203 -625.458)" fill="url(#linear-gradient-4)"/>
        <path id="Path_608" data-name="Path 608" d="M338.878,711.34c-3.275-4.094-5.042-11.462-8.23-15.34a66.012,66.012,0,0,0-6.248,7.584c3.835,4.223,7.8,8.489,11.763,12.281C336.465,715.175,338.49,712.288,338.878,711.34Z" transform="translate(-303.71 -638.604)" fill="#ffd300"/>
        <path id="Path_609" data-name="Path 609" d="M326.659,740.254c-4.869-3.835-8.316-7.067-14.651-7.455a21.757,21.757,0,0,0-1.508,5c5.171-.388,13.573,2.887,15.685,4.266A4.519,4.519,0,0,0,326.659,740.254Z" transform="translate(-295.8 -659.547)" fill="#ffd300"/>
        <path id="Path_610" data-name="Path 610" d="M344.337,772.4c-4.783,2.068-7.325,2.973-9.437,7.8a30.474,30.474,0,0,0,3.663,2.5c2.413-3.706,5-4.611,8.446-7.454C346.017,774.641,345.285,773.046,344.337,772.4Z" transform="translate(-309.686 -682.084)" fill="#ffd300"/>
        <path id="Path_611" data-name="Path 611" d="M318.737,769.219c5.257-3.146,6.162-4.7,12.238-6.377a13.54,13.54,0,0,1-1.982-3.232c-4.524-.388-10.385.819-14.392,5.214Z" transform="translate(-298.133 -674.766)" fill="#ffd300"/>
        <path id="Path_612" data-name="Path 612" d="M432.009,732.291l-.3-.259a4.895,4.895,0,0,1-.172-7.325c3.792-3.533,8.833-8.876,9.049-12.151.172-3.016-4.783-10.342-4.783-10.342s-2.715-18.141-4.568-23.915c15.168,6.033,27.534,23.742,25.294,36.842-1.163,6.808-13.185,14.349-18.916,17.624A4.8,4.8,0,0,1,432.009,732.291Z" transform="translate(-363.791 -628.531)" fill="url(#linear-gradient-5)"/>
        <path id="Path_613" data-name="Path 613" d="M443.5,715.006c3.275-4.094,6.377-10.428,9.566-14.306a81.371,81.371,0,0,1,5.257,6.463c-3.835,4.223-8.144,8.575-12.108,12.324C445.956,718.841,443.888,715.954,443.5,715.006Z" transform="translate(-371.49 -641.279)" fill="#ffd300"/>
        <path id="Path_614" data-name="Path 614" d="M453.5,742.554c4.869-3.835,8.316-7.067,14.651-7.454a21.757,21.757,0,0,1,1.508,5c-5.171-.388-13.573,2.887-15.685,4.266A7.467,7.467,0,0,1,453.5,742.554Z" transform="translate(-377.181 -660.856)" fill="#ffd300"/>
        <path id="Path_615" data-name="Path 615" d="M441.215,774.7c4.783,2.068,7.541,2.844,9.609,7.67A29.219,29.219,0,0,1,446.946,785c-2.413-3.706-5-4.611-8.446-7.454C439.491,776.941,440.224,775.346,441.215,774.7Z" transform="translate(-368.645 -683.393)" fill="#ffd300"/>
        <path id="Path_616" data-name="Path 616" d="M461.237,771.519c-5.257-3.146-6.162-4.7-12.238-6.377a13.535,13.535,0,0,0,1.982-3.232c4.524-.388,10.428.819,14.392,5.214Z" transform="translate(-374.62 -676.075)" fill="#ffd300"/>
        <path id="Path_617" data-name="Path 617" d="M370.419,782.1a3.953,3.953,0,0,0-2.2.172c-1.422.819-5.3,3.49-6.2,5.3a1.777,1.777,0,0,0,.646,2.2,3.369,3.369,0,0,0,2.8.129c.862-.474,1.81-2.068,2.628-2.585.474-.3,1.594.345,2.154.215.172-.043.6-.086.732-.258a1.1,1.1,0,0,0,.086-.3s.689-.043.948-.043c.431,0,.56-.474.215-.646l-3.059-1.206,1.853-.129a6.55,6.55,0,0,0,1.594.172c.431-.129.388-.431.259-.517a20.469,20.469,0,0,0-3.49-1.379s2.887,0,3.016-.819C372.444,782.23,370.936,782.143,370.419,782.1Z" transform="translate(-325.039 -687.561)" fill="#ff8aa9"/>
        <path id="Path_618" data-name="Path 618" d="M340.637,749.1l50.156,1.551a1.574,1.574,0,0,1,1.508,1.81l-5.257,32.49L339,782.8l.043-32.1A1.539,1.539,0,0,1,340.637,749.1Z" transform="translate(-312.019 -668.824)" fill="url(#linear-gradient-6)"/>
        <path id="Path_619" data-name="Path 619" d="M399.306,774.508c0,.991-.819,1.465-1.853,1.465s-1.853-.474-1.853-1.465.819-1.508,1.853-1.508S399.306,773.517,399.306,774.508Z" transform="translate(-344.23 -682.425)" fill="#2d32e2"/>
        <path id="Path_620" data-name="Path 620" d="M381.3,826.707s24.82-10.255,37.574-21.631c4.223-3.792,17.882-6.119,20.985-.216,1.68,3.189.215,7.11-3.275,11.117-8.015,9.135-51.578,17.925-51.578,17.925Z" transform="translate(-336.092 -698.515)" fill="#0a1456"/>
        <path id="Path_621" data-name="Path 621" d="M394,859.539s5.515,2.973,7.928,3.576c2.413.56,12.755,1.594,12.755-.733,0-1.465-6.722-3.964-9.006-4.783-3.1-1.12-9.7-5.3-9.7-5.3Z" transform="translate(-343.32 -727.555)" fill="#ffc200"/>
        <path id="Path_622" data-name="Path 622" d="M282.337,784.124c-4.438.819-9.049,4.007-3.189,13.1,3.792,5.946,16.115,15.814,24.432,19.3,7.67,3.189,29.473,8.144,29.473,8.144l4.05-7.067s-23.915-14.435-42.573-29.172C290.783,785.5,286.215,783.435,282.337,784.124Z" transform="translate(-276.384 -688.68)" fill="#0a1456"/>
      </g>
      <g id="Group_296" data-name="Group 296" transform="translate(230.503 124.683)">
        <path id="Path_623" data-name="Path 623" d="M887.508,517.657c1.034.431-1.853,3.4-4.912,3.792s-7.2-1.68-7.2-1.68l1.12-4.266a9.872,9.872,0,0,0,4.18-.172c.862-.258,2.93-.9,3.059-.388.172.776-1.724,1.637-1.12,2.025C884.449,518.045,886.991,517.442,887.508,517.657Z" transform="translate(-821.252 -453.306)" fill="#ff8aa9"/>
        <path id="Path_624" data-name="Path 624" d="M838.233,484.866c1.293-.6,2.585-5.429,2.154-6.808-.646-1.939-21.416-7.024-18.313-3.232,2.8,3.4,10.126-23.225,2.715-26.285-4.826-2.025-21.157,22.148-14.737,29C817.076,485.082,835.906,485.943,838.233,484.866Z" transform="translate(-783.223 -415.559)" fill="#131a6d"/>
        <path id="Path_625" data-name="Path 625" d="M880.943,522.854H869.309c-.517,0-.517-1.12-.345-1.724.345-1.207,2.844-1.724,3.878-1.724l11.85-1.206C885.984,519.622,882.494,522.854,880.943,522.854Z" transform="translate(-817.531 -455.271)" fill="#131a6d"/>
        <path id="Path_626" data-name="Path 626" d="M881.026,521.547H869.391c-1.551,0,1.982-3.447,3.533-3.447h11.634C886.153,518.056,882.577,521.547,881.026,521.547Z" transform="translate(-817.613 -455.213)" fill="#2d32e2"/>
        <path id="Path_627" data-name="Path 627" d="M870.2,521.642c.388-.776,2.456-2.542,3.4-2.542h11.505c-.388.776-2.456,2.542-3.4,2.542Z" transform="translate(-818.293 -455.783)" fill="#fff"/>
        <path id="Path_628" data-name="Path 628" d="M824.3,839.2s.172,10.3.6,11.936,2.585,1.939,4.912,2.585c1.853.517,6.248.776,6.076-.259-.216-1.12-5.817-3.749-5.774-5.085a36.836,36.836,0,0,1,.948-7.368Z" transform="translate(-792.171 -637.953)" fill="#ffc200"/>
        <path id="Path_629" data-name="Path 629" d="M793.5,527.741s7.368,78.337,8.273,87.429c2.5,24.992,3.706,43.779,4.352,53.647.129,2.025,7.325,1.939,7.8-.215a403.953,403.953,0,0,0,8.187-52.526c1.077-14.22,1.293-29.086,1.034-49.9-.129-10.083-1.81-24.518-4.309-33.395C816.9,526.017,793.5,527.741,793.5,527.741Z" transform="translate(-774.643 -460.588)" fill="#2d32e2"/>
        <path id="Path_630" data-name="Path 630" d="M818.7,738.1l-3.1,16.245a102.582,102.582,0,0,0,1.508,11.893A71.748,71.748,0,0,0,818.7,738.1Z" transform="translate(-787.22 -580.416)" fill="#131a6d"/>
        <path id="Path_631" data-name="Path 631" d="M786.3,851.548s-1.163,5.343-.9,6.377a22.089,22.089,0,0,0,3.921,6.937c.3.388-.258,1.379-1.508.776-3.663-1.68-7.8-6.464-7.972-6.937-.474-1.293.56-8.1.56-8.1Z" transform="translate(-766.796 -644.44)" fill="#ffc200"/>
        <path id="Path_632" data-name="Path 632" d="M780.539,536.437s-23.915-4.137-24.13,2.154c-.086,2.327-2.456,11.979-3.232,27.147-.6,12.41,14.392,39.3,13.659,53.345-1.508,30.034-3.62,51.363-3.189,55.758.259,2.629,7.153,2.758,7.756.172,2.025-8.618,17.107-58.214,16.116-86.74C786.787,565.609,780.539,536.437,780.539,536.437Z" transform="translate(-751.684 -464.89)" fill="#2d32e2"/>
        <path id="Path_633" data-name="Path 633" d="M802.012,434.4c-6.55-7.541-25.9-7.067-30.766,1.637-1.767,3.146.862,9.738,3.878,11.893,4.137,2.973,10.126,2.973,15.168,1.853,4.955-1.12,9.911-3.361,12.927-6.851C806.666,438.926,805.072,437.892,802.012,434.4Z" transform="translate(-761.653 -404.565)" fill="#ff8aa9"/>
        <path id="Path_634" data-name="Path 634" d="M815.493,398.032a9.626,9.626,0,0,0,8.359-.388c3.361-2.241,4.18-7.239,3.921-9.48-.259-2.154-8.015-5.214-10.385-4.654C811.012,385.019,809.288,395.016,815.493,398.032Z" transform="translate(-784.958 -378.581)" fill="#ffc200"/>
        <path id="Path_635" data-name="Path 635" d="M844.643,400.667a1.607,1.607,0,0,0-2.111-.948c-.776.388-1.379,3.49-.3,3.706C843.35,403.683,844.858,402.347,844.643,400.667Z" transform="translate(-802.043 -387.765)" fill="#d86689"/>
        <path id="Path_636" data-name="Path 636" d="M819.391,418.665c-.043-4.007,1.379-6.851,3.189-10.686,1.034-2.2-8.877-5.946-9.566-3.4-.6,2.241-1.724,6.42-2.672,11.031C809.567,419.57,819.434,421.294,819.391,418.665Z" transform="translate(-784.203 -390.121)" fill="#ff8aa9"/>
        <path id="Path_637" data-name="Path 637" d="M816.332,403.8l-.733,2.758c.431,2.456,3.146,6.981,5.171,7.239,1.68.215,2.758-1.12,3.533-2.887l.345-1.81Z" transform="translate(-787.22 -390.165)" fill="#d86689"/>
        <path id="Path_638" data-name="Path 638" d="M817.1,401.8l-.6,2.025c.474,4.266,3.275,7.627,5.472,7.842,2.37.259,2.413-1.853,3.921-3.576l.259-1.293Z" transform="translate(-787.732 -389.027)" fill="#131a6d"/>
        <path id="Path_639" data-name="Path 639" d="M830.557,381.99c-.862-1.982-4.869-5.214-8.4-2.758-2.93,2.025-3.964,5.946-4.309,9.006-.345,3.275,1.465,7.972,5.257,8.79,3.447.776,4.783-2.327,5.9-5.214C830.341,388.539,831.979,385.178,830.557,381.99Z" transform="translate(-788.474 -375.68)" fill="#ff8aa9"/>
        <path id="Path_640" data-name="Path 640" d="M768.811,436.889c.9-5.774,13.444-11.16,14.047-9.221,1.422,4.481,7.239,7.584,9.954,7.713,3.49.172,3.189-2.284,3.4-4.783.172-1.853,7.885,4.654,8.23,7.11.9,6.938.086,37.919.086,37.919a60.839,60.839,0,0,1-18.959,1.336,138.6,138.6,0,0,1-18.873-3.146S767.777,443.525,768.811,436.889Z" transform="translate(-759.391 -403.519)" fill="url(#linear-gradient-7)"/>
        <path id="Path_641" data-name="Path 641" d="M834.629,399.67c-.043-.776-1.982,3.275-1.12,4.266.3.345,1.853.3,2.068-.172.129-.259-.431-.431-.776-1.465A9.582,9.582,0,0,1,834.629,399.67Z" transform="translate(-797.286 -387.759)" fill="#ef6295"/>
        <path id="Path_642" data-name="Path 642" d="M829.668,396.083c.431-.388-.474-1.034-1.206-.9a.955.955,0,0,0-.862.689,3,3,0,0,1,1.163,0C829.237,395.953,829.539,396.212,829.668,396.083Z" transform="translate(-794.049 -385.249)" fill="#131a6d"/>
        <path id="Path_643" data-name="Path 643" d="M829.122,397.912a.372.372,0,1,1-.732-.129c.043-.215.215-.172.431-.129C829.035,397.653,829.165,397.7,829.122,397.912Z" transform="translate(-794.493 -386.647)" fill="#131a6d"/>
        <path id="Path_644" data-name="Path 644" d="M840.945,400.688a.385.385,0,0,1-.689-.345c.086-.172.259-.129.431-.043C840.9,400.43,841.031,400.516,840.945,400.688Z" transform="translate(-801.232 -388.131)" fill="#131a6d"/>
        <g id="Group_290" data-name="Group 290" transform="translate(33.896 16.866)">
          <path id="Path_645" data-name="Path 645" d="M830.3,412.722a2.329,2.329,0,0,1-1.9-1.207l.345-.215a1.9,1.9,0,0,0,1.551.991Z" transform="translate(-828.4 -411.3)" fill="#131a6d"/>
        </g>
        <g id="Group_291" data-name="Group 291" transform="translate(31.224 106.192)">
          <path id="Path_646" data-name="Path 646" d="M822.631,676.47l-.431-.086c.086-.3,6.464-31.025,3.533-57.74l.431-.043C829.137,645.359,822.717,676.168,822.631,676.47Z" transform="translate(-822.2 -618.6)" fill="#131a6d"/>
        </g>
        <g id="Group_292" data-name="Group 292" transform="translate(5.032 88.236)">
          <rect id="Rectangle_73" data-name="Rectangle 73" width="0.431" height="9.695" transform="translate(4.298 0) rotate(26.314)" fill="#131a6d"/>
        </g>
        <path id="Path_647" data-name="Path 647" d="M843.315,442.29c.172-6.377-4.007-7.411-7.2-8.79.776,2.154,1.206,6.636-2.542,7.2-2.5,8.661,3.275,43.133,4.007,53.948.129,1.724-.345,4.74,2.542,4.7,4.869-.043,7.11-.9,7.282-2.542C849.951,474,842.927,456.768,843.315,442.29Z" transform="translate(-797.096 -407.068)" fill="#131a6d"/>
        <path id="Path_648" data-name="Path 648" d="M771.955,425.9c-4.783.129-10.083.129-14.866,5.516-7.627,8.618-8.575,30.464-6.2,61.015.086,1.25,29.129,4.611,31.843,2.758,3.62-2.5-2.93-44.339.216-58.688C778.85,436.155,772.946,431.588,771.955,425.9Z" transform="translate(-749.737 -402.742)" fill="#131a6d"/>
        <path id="Path_649" data-name="Path 649" d="M817.609,395.62c-.172-.345-.948-.948-1.594-.517a2.322,2.322,0,0,0-.819,1.637c-.043.6.388,1.939,1.12,2.111C817.954,399.239,817.868,396.223,817.609,395.62Z" transform="translate(-786.988 -385.13)" fill="#d86689"/>
        <path id="Path_650" data-name="Path 650" d="M810.3,384.351s4.568.474,7.584-2.37a6.56,6.56,0,0,0,2.284-3.447c.388-1.724-1.034-4.869-3.663-4.094C811.506,375.949,810.3,384.351,810.3,384.351Z" transform="translate(-784.204 -373.388)" fill="#ffd300"/>
        <path id="Path_651" data-name="Path 651" d="M830.026,377.777a12.078,12.078,0,0,0,3.016,4.611c1.077.948,5.6,4.094,5.6,4.094s2.111-5.214.819-8.747a8.221,8.221,0,0,0-5.817-5.3c-.862-.215-2.93-.517-3.749.043C828.949,373.167,829.725,376.614,830.026,377.777Z" transform="translate(-795.097 -372.157)" fill="#ffd300"/>
        <g id="Group_293" data-name="Group 293" transform="translate(34.714 5.577)">
          <path id="Path_652" data-name="Path 652" d="M838.616,393.546c-.259-.129-6.765-3.533-8.316-8.316l.431-.129c1.465,4.611,8.015,8.058,8.1,8.058Z" transform="translate(-830.3 -385.1)" fill="#131a6d"/>
        </g>
        <g id="Group_294" data-name="Group 294" transform="translate(36.955 5.189)">
          <path id="Path_653" data-name="Path 653" d="M841.36,390.4a10.991,10.991,0,0,1-5.86-6.076l.388-.129a10.818,10.818,0,0,0,5.6,5.817Z" transform="translate(-835.5 -384.2)" fill="#131a6d"/>
        </g>
        <path id="Path_654" data-name="Path 654" d="M879.951,519.948c.948.129.259.732-1.163,2.672-.6.776-.733,2.154-1.982,2.844-3.146,1.767-9.006,1.853-9.006,1.853v-5.128a36.088,36.088,0,0,0,4.568-2.284c.9-.56,3.1.043,3.361.6.431.819-3.361.862-2.585.431C875.47,519.689,879.3,519.862,879.951,519.948Z" transform="translate(-816.927 -456.114)" fill="#ff8aa9"/>
        <path id="Path_655" data-name="Path 655" d="M812.574,478.885c1.293-1.034,1.379-6.894.474-8.273-1.293-2.025-18.615-3.189-22.493-5.688-4.094-2.672-3.921-5.3-5.128-11.462-1.077-5.515-6.076-22.062-11.807-22.062-3.706,0-6.765,6.808-6.722,11.936.086,6.593,2.585,29.56,11.72,35.42C788.746,485.176,810.291,480.738,812.574,478.885Z" transform="translate(-759.504 -405.872)" fill="#131a6d"/>
        <g id="Group_295" data-name="Group 295" transform="translate(10.8 59.655)">
          <path id="Path_656" data-name="Path 656" d="M791.131,526.8c-.129,0-13.4-.172-16.331-16.116l.431-.086c2.844,15.6,15.771,15.771,15.9,15.771Z" transform="translate(-774.8 -510.6)" fill="#fff"/>
        </g>
      </g>
    </g>
  </g>
</svg>
