<svg xmlns="http://www.w3.org/2000/svg" width="101.038" height="101" viewBox="0 0 101.038 101">
  <g id="invite_sent" transform="translate(0.338 0.5)">
    <path id="Shape" d="M4.041,100a4.071,4.071,0,0,1-2.857-1.187A4.012,4.012,0,0,1,.21,94.684L9.4,67.128A47.464,47.464,0,0,1,52.442,0h2.666c.073,0,.146,0,.219.006A47.356,47.356,0,0,1,99.994,44.668c0,.04,0,.079,0,.117s0,.073,0,.108v2.548A47.474,47.474,0,0,1,52.555,94.893h-.118a47.224,47.224,0,0,1-19.563-4.286L5.317,99.792A3.98,3.98,0,0,1,4.041,100ZM52.453,8.077A39.415,39.415,0,0,0,13.186,47.446,38.938,38.938,0,0,0,17.349,65.03a4.013,4.013,0,0,1,.225,3.1L10.43,89.571l21.442-7.149a4.042,4.042,0,0,1,3.1.231,38.93,38.93,0,0,0,17.471,4.162h.1A39.407,39.407,0,0,0,91.917,47.458V45.005A39.258,39.258,0,0,0,54.99,8.077H52.453Z" transform="translate(0.2 0)" fill="#4285f4" stroke="rgba(0,0,0,0)" stroke-width="1"/>
    <rect id="Rectangle_12" data-name="Rectangle 12" width="24" height="8" transform="translate(32.811 46.454) rotate(45)" fill="#4285f4" stroke="rgba(0,0,0,0)" stroke-width="1"/>
    <rect id="Rectangle_13" data-name="Rectangle 13" width="44" height="8" transform="translate(76.388 36.969) rotate(135)" fill="#4285f4" stroke="rgba(0,0,0,0)" stroke-width="1"/>
  </g>
</svg>
