<svg xmlns="http://www.w3.org/2000/svg" width="200.498" height="42" viewBox="0 0 200.498 42">
  <g id="Logo_inner" transform="translate(0.001 0.005)">
    <path id="Path_668" data-name="Path 668" d="M20.479,21.05,34.933,35.872a20.161,20.161,0,0,1-14.454,6.123A20.745,20.745,0,0,1,0,20.995,20.745,20.745,0,0,1,20.479,0,20.166,20.166,0,0,1,34.987,6.174Zm0-13.076a2.521,2.521,0,1,0,2.457,2.52A2.489,2.489,0,0,0,20.479,7.975Z" fill="#4285f4" fill-rule="evenodd"/>
    <path id="Path_669" data-name="Path 669" d="M39.83,35.652c.013-.014.026-.026.039-.039a21.408,21.408,0,0,0,0-29.723l-14.519,14.9Z" transform="translate(1.128 0.262)" fill="#ffd200" fill-rule="evenodd"/>
    <path id="Path_670" data-name="Path 670" d="M182.4,21.795a11.575,11.575,0,0,0,.515,3.448,7.269,7.269,0,0,0,1.422,2.591,6.1,6.1,0,0,0,2.255,1.621,7.623,7.623,0,0,0,3,.561,10.787,10.787,0,0,0,6.737-2.468v2.57A12.376,12.376,0,0,1,189,32.26a9.778,9.778,0,0,1-3.852-.734,7.986,7.986,0,0,1-2.946-2.132,9.7,9.7,0,0,1-1.874-3.437,15.1,15.1,0,0,1-.659-4.651,12.7,12.7,0,0,1,.721-4.346,10.689,10.689,0,0,1,2-3.457,9.219,9.219,0,0,1,3.028-2.285,8.874,8.874,0,0,1,3.832-.826,8.711,8.711,0,0,1,3.6.7,7.071,7.071,0,0,1,2.627,2.01,9.064,9.064,0,0,1,1.617,3.183,14.77,14.77,0,0,1,.557,4.2v1.306Zm10.959-7.344a5.157,5.157,0,0,0-4.181-1.8,6.467,6.467,0,0,0-2.483.47,5.9,5.9,0,0,0-2.009,1.356,7.337,7.337,0,0,0-1.432,2.163,10.73,10.73,0,0,0-.793,2.866h12.463A7.9,7.9,0,0,0,193.363,14.451Zm-20.267-1.8a7.6,7.6,0,0,0-3.337.7,7.176,7.176,0,0,0-2.462,1.918,8.575,8.575,0,0,0-1.525,2.836,11.1,11.1,0,0,0-.525,3.437,11.48,11.48,0,0,0,.443,3.2,7.911,7.911,0,0,0,1.36,2.7,6.612,6.612,0,0,0,2.318,1.866,7.343,7.343,0,0,0,3.3.694,8.832,8.832,0,0,0,5.356-1.754v2.57a11.146,11.146,0,0,1-5.686,1.448,9.821,9.821,0,0,1-4.079-.775,8.934,8.934,0,0,1-3.09-2.213,9.8,9.8,0,0,1-1.957-3.345,12.521,12.521,0,0,1-.68-4.193,13.337,13.337,0,0,1,.721-4.416,10.525,10.525,0,0,1,2.1-3.611,9.938,9.938,0,0,1,3.379-2.438,11.047,11.047,0,0,1,4.573-.9,11.273,11.273,0,0,1,4.78,1v2.775A8.932,8.932,0,0,0,173.1,12.655Zm-16.249,15.4h-.083a7.688,7.688,0,0,1-2.812,3.1,7.5,7.5,0,0,1-4.028,1.1,8.309,8.309,0,0,1-2.75-.428,5.935,5.935,0,0,1-2.081-1.214,5.347,5.347,0,0,1-1.318-1.887,6.2,6.2,0,0,1-.464-2.427,5.937,5.937,0,0,1,1.771-4.518,9.567,9.567,0,0,1,5.356-2.193l6.407-.918q0-6.018-4.717-6.018a10.371,10.371,0,0,0-6.84,2.673V12.473a8.882,8.882,0,0,1,1.494-.847,13.849,13.849,0,0,1,1.762-.653,14.411,14.411,0,0,1,1.905-.428,12.3,12.3,0,0,1,1.906-.154,6.882,6.882,0,0,1,5.325,1.958q1.8,1.958,1.8,5.834V31.77h-2.637Zm0-7.181-5.439.755a16.66,16.66,0,0,0-2.43.51,5.039,5.039,0,0,0-1.669.826,3.093,3.093,0,0,0-.968,1.286,5.061,5.061,0,0,0-.308,1.886,3.97,3.97,0,0,0,.3,1.551,3.458,3.458,0,0,0,.865,1.234,3.917,3.917,0,0,0,1.38.806,5.561,5.561,0,0,0,1.845.285,6.1,6.1,0,0,0,4.6-2,6.8,6.8,0,0,0,1.339-2.244,8.092,8.092,0,0,0,.484-2.836Zm-17.256,8.161a8.6,8.6,0,0,1-3,2.376,9.045,9.045,0,0,1-3.966.847,7.184,7.184,0,0,1-6.653-3.856h-.083V41.379h-2.637v-30.5h2.637v4h.083a8.336,8.336,0,0,1,3.141-3.335,9.235,9.235,0,0,1,8.055-.428,7.472,7.472,0,0,1,2.7,2.05,9.248,9.248,0,0,1,1.689,3.223,14.381,14.381,0,0,1,.587,4.264,15.926,15.926,0,0,1-.659,4.722A10.867,10.867,0,0,1,139.591,29.037Zm-.618-11.72a7.468,7.468,0,0,0-1.288-2.519,5.559,5.559,0,0,0-2.019-1.591,6.2,6.2,0,0,0-2.647-.551,7.08,7.08,0,0,0-2.966.6,6.7,6.7,0,0,0-2.246,1.643,7.261,7.261,0,0,0-1.422,2.438,8.848,8.848,0,0,0-.494,2.968V23.08a7.387,7.387,0,0,0,.484,2.682,6.956,6.956,0,0,0,1.349,2.2,6.271,6.271,0,0,0,2.091,1.5,6.527,6.527,0,0,0,2.709.55,6.122,6.122,0,0,0,2.863-.662,6.238,6.238,0,0,0,2.174-1.887,9.1,9.1,0,0,0,1.38-2.958,14.41,14.41,0,0,0,.485-3.876A11.3,11.3,0,0,0,138.972,17.317ZM117.91,30.73a7.539,7.539,0,0,1-2.442,1.143,11.417,11.417,0,0,1-3.049.388,10.174,10.174,0,0,1-5.376-1.326V28.017a8.352,8.352,0,0,0,1.3.837,11.121,11.121,0,0,0,1.442.633,9.1,9.1,0,0,0,1.494.4,8.207,8.207,0,0,0,1.431.133q4.7,0,4.7-3.488a2.753,2.753,0,0,0-.329-1.378,3.608,3.608,0,0,0-.948-1.06,7.931,7.931,0,0,0-1.483-.888q-.865-.407-1.956-.856a19.727,19.727,0,0,1-2.514-1.2,7.594,7.594,0,0,1-1.73-1.336,4.808,4.808,0,0,1-1.01-1.591,5.523,5.523,0,0,1-.329-1.969,4.949,4.949,0,0,1,.608-2.468,5.737,5.737,0,0,1,1.638-1.836,7.627,7.627,0,0,1,2.379-1.153,9.96,9.96,0,0,1,2.833-.4,10.557,10.557,0,0,1,4.778,1.02v2.754a9.327,9.327,0,0,0-5.109-1.51,6.214,6.214,0,0,0-1.8.245,4.2,4.2,0,0,0-1.39.694,3.2,3.2,0,0,0-.9,1.071,2.97,2.97,0,0,0-.32,1.378,3.44,3.44,0,0,0,.248,1.356,2.962,2.962,0,0,0,.772,1.051,6.527,6.527,0,0,0,1.36.9q.835.428,2.029.917a25.968,25.968,0,0,1,2.637,1.215,8.167,8.167,0,0,1,1.833,1.306,4.578,4.578,0,0,1,1.071,1.57,5.332,5.332,0,0,1,.351,2.01,5.262,5.262,0,0,1-.587,2.51A5.438,5.438,0,0,1,117.91,30.73Zm-27.2-5.488a7.269,7.269,0,0,0,1.422,2.591,6.1,6.1,0,0,0,2.255,1.621,7.627,7.627,0,0,0,3,.561,10.787,10.787,0,0,0,6.737-2.468v2.57a12.376,12.376,0,0,1-7.334,2.142,9.778,9.778,0,0,1-3.852-.734,7.974,7.974,0,0,1-2.945-2.132,9.7,9.7,0,0,1-1.875-3.437,15.1,15.1,0,0,1-.659-4.651,12.729,12.729,0,0,1,.721-4.346,10.689,10.689,0,0,1,2-3.457A9.218,9.218,0,0,1,93.2,11.217a8.874,8.874,0,0,1,3.832-.826,8.711,8.711,0,0,1,3.6.7,7.062,7.062,0,0,1,2.627,2.01,9.064,9.064,0,0,1,1.617,3.183,14.77,14.77,0,0,1,.557,4.2v1.306H90.2A11.575,11.575,0,0,0,90.712,25.242Zm12.01-5.732a7.915,7.915,0,0,0-1.566-5.059,5.159,5.159,0,0,0-4.182-1.8,6.467,6.467,0,0,0-2.483.47,5.9,5.9,0,0,0-2.009,1.356,7.337,7.337,0,0,0-1.432,2.163,10.807,10.807,0,0,0-.793,2.866Zm-20.838-.021a14.863,14.863,0,0,0-.288-3.172,5.5,5.5,0,0,0-.9-2.111,3.469,3.469,0,0,0-1.545-1.183,6.136,6.136,0,0,0-2.235-.368,4.632,4.632,0,0,0-2.184.541,5.757,5.757,0,0,0-1.8,1.489,7.21,7.21,0,0,0-1.215,2.233,8.457,8.457,0,0,0-.443,2.775V31.77H68.638V19.224q0-6.568-5.089-6.569a4.7,4.7,0,0,0-2.183.52A5.433,5.433,0,0,0,59.6,14.635a6.956,6.956,0,0,0-1.174,2.254,9.464,9.464,0,0,0-.422,2.907V31.77H55.371V10.881h2.637v3.386h.083a7.079,7.079,0,0,1,6.489-3.876,6.467,6.467,0,0,1,2.1.337A6.048,6.048,0,0,1,69.8,13.1a6.419,6.419,0,0,1,.855,1.836,8.42,8.42,0,0,1,2.894-3.386,7.2,7.2,0,0,1,4.028-1.164q6.942,0,6.943,8.486V31.77H81.884Z" transform="translate(2.849 0.543)" fill-rule="evenodd"/>
  </g>
</svg>
