<svg xmlns="http://www.w3.org/2000/svg" width="18" height="18" viewBox="0 0 18 18">
  <g id="phone" transform="translate(0 0)">
    <path id="Path" d="M13.48,11.652a1.007,1.007,0,0,0-1.024.005l-1.6.954a1,1,0,0,1-1.135-.068,26.112,26.112,0,0,1-2.279-1.986A25.942,25.942,0,0,1,5.455,8.278a1,1,0,0,1-.068-1.135l.954-1.6a1.01,1.01,0,0,0,0-1.028L3.995.5A1.011,1.011,0,0,0,2.878.03,3.315,3.315,0,0,0,1.323.964C-.488,2.775-1.45,5.829,5.36,12.64s9.864,5.849,11.676,4.037a3.33,3.33,0,0,0,.935-1.558,1.007,1.007,0,0,0-.47-1.113Z" transform="translate(0 0)" fill="#4285f4"/>
  </g>
</svg>
