<svg id="phone_outline" xmlns="http://www.w3.org/2000/svg" width="16" height="16" viewBox="0 0 16 16">
  <g id="Group_305" data-name="Group 305">
    <path id="Path_665" data-name="Path 665" d="M14.716,10.5a9.084,9.084,0,0,1-2.853-.454,1.256,1.256,0,0,0-1.268.267L8.8,11.673A9.942,9.942,0,0,1,4.326,7.2L5.644,5.452a1.293,1.293,0,0,0,.318-1.31,9.1,9.1,0,0,1-.456-2.858A1.285,1.285,0,0,0,4.222,0H1.284A1.285,1.285,0,0,0,0,1.284,14.733,14.733,0,0,0,14.716,16,1.285,1.285,0,0,0,16,14.716v-2.93A1.285,1.285,0,0,0,14.716,10.5Zm.395,4.214a.4.4,0,0,1-.395.395A13.843,13.843,0,0,1,.889,1.284.4.4,0,0,1,1.284.889H4.222a.4.4,0,0,1,.395.395,9.967,9.967,0,0,0,.5,3.13.442.442,0,0,1-.141.456L3.448,6.893a.445.445,0,0,0-.042.469,11.034,11.034,0,0,0,5.23,5.231.443.443,0,0,0,.47-.041l2.07-1.568a.392.392,0,0,1,.4-.094,9.981,9.981,0,0,0,3.136.5.4.4,0,0,1,.395.395Z" fill="#4285f4"/>
  </g>
</svg>
