<svg xmlns="http://www.w3.org/2000/svg" width="17.969" height="18" viewBox="0 0 17.969 18">
  <path id="post" d="M17.969,2.809A2.814,2.814,0,0,0,13.164.824L1.836,12.2a3.371,3.371,0,0,0-.813,1.318l-.011.032L0,18l4.464-1,.033-.011a3.377,3.377,0,0,0,1.32-.814L17.146,4.8a2.8,2.8,0,0,0,.823-1.991ZM2.475,16.005,2,15.531l.342-1.5,1.639,1.64Zm13.676-12.2-11,11.043L3.161,12.858,10.7,5.294l1.147,1.147.994-.994L11.687,4.3l1.069-1.073,1.151,1.151.994-.994L13.747,2.229l.412-.413a1.409,1.409,0,1,1,1.993,1.992ZM7.392,16.579H17.969v1.405H5.991Zm0,0" transform="translate(0 0.001)" fill="#969696"/>
</svg>
