<svg xmlns="http://www.w3.org/2000/svg" width="21" height="21" viewBox="0 0 21 21">
  <g id="recent_chat" transform="translate(-0.2)">
    <path id="Shape" d="M.849,21a.855.855,0,0,1-.6-.249.843.843,0,0,1-.2-.867L1.973,14.1A9.967,9.967,0,0,1,11.013,0h.606A9.945,9.945,0,0,1,21,9.38c0,.008,0,.017,0,.025s0,.015,0,.023v.535a9.969,9.969,0,0,1-9.964,9.965h-.025a9.917,9.917,0,0,1-4.108-.9L1.117,20.956A.836.836,0,0,1,.849,21ZM11.015,1.7A8.277,8.277,0,0,0,2.769,9.964a8.177,8.177,0,0,0,.874,3.693.843.843,0,0,1,.047.651l-1.5,4.5,4.5-1.5a.849.849,0,0,1,.651.048,8.175,8.175,0,0,0,3.669.874h.021A8.276,8.276,0,0,0,19.3,9.966V9.451A8.244,8.244,0,0,0,11.548,1.7h-.533Z" transform="translate(0.2)" fill="#fff"/>
  </g>
</svg>
