<svg xmlns="http://www.w3.org/2000/svg" width="18" height="18" viewBox="0 0 18 18">
  <path id="social" d="M16.031,3.938a1.948,1.948,0,0,1-.93-.244L11.907,6.888a2.8,2.8,0,0,1,0,3.1L13.9,11.981a1.67,1.67,0,0,1,.723-.169A1.688,1.688,0,1,1,12.938,13.5a1.67,1.67,0,0,1,.169-.723l-1.995-1.995a2.8,2.8,0,0,1-.987.4v3.073A1.97,1.97,0,1,1,9,14.091v-2.9a2.8,2.8,0,0,1-1.3-.656l-4,4a1.948,1.948,0,0,1,.244.93A1.969,1.969,0,1,1,1.969,13.5a1.948,1.948,0,0,1,.93.244L7.022,9.62a2.741,2.741,0,0,1,.319-2.89L5.02,4.41a1.685,1.685,0,1,1,.9-.692L8.2,5.994a2.759,2.759,0,0,1,2.916.1L14.306,2.9a1.948,1.948,0,0,1-.244-.93,1.969,1.969,0,1,1,1.969,1.969ZM14.625,14.223A.723.723,0,1,0,13.9,13.5.724.724,0,0,0,14.625,14.223Zm-12.656.4a.841.841,0,1,0,.841.841A.841.841,0,0,0,1.969,14.628ZM4.5,2.089a.723.723,0,1,0,.723.723A.724.724,0,0,0,4.5,2.089ZM8.44,16.031a.841.841,0,1,0,.841-.841A.841.841,0,0,0,8.44,16.031ZM9.563,6.75A1.688,1.688,0,1,0,11.25,8.438,1.687,1.687,0,0,0,9.563,6.75Zm6.469-5.625a.844.844,0,1,0,.844.844A.844.844,0,0,0,16.031,1.125Z" fill="#506df7" fill-rule="evenodd"/>
</svg>
