<svg xmlns:xlink="http://www.w3.org/1999/xlink" height="812" viewBox="0 0 375 812"
    width="375" xmlns="http://www.w3.org/2000/svg">
    <defs>
        <radialGradient cx="0.5" cy="0.5" gradientUnits="objectBoundingBox" id="radial-gradient"
            r="0.5">
            <stop offset="0" stop-color="#fff" />
            <stop offset="1" stop-color="#ebf4ff" />
        </radialGradient>
        <clipPath id="clip-_1">
            <rect height="812" width="375" />
        </clipPath>
    </defs>
    <g clip-path="url(#clip-_1)" data-name="1" id="_1">
        <rect fill="#f7f7f7" height="812" width="375" />
        <rect data-name="Rectangle 9" fill="url(#radial-gradient)" height="812" id="Rectangle_9"
            width="375" />
        <g id="form" transform="translate(-61.867 156.333)">
            <path d="M26.209,498.993A20.2,20.2,0,0,1,7.046,472.409L52.968,334.638A237.11,237.11,0,0,1,162.714,24.11,235.143,235.143,0,0,1,268.218-1c.2,0,.4,0,.6,0h12.714c.373,0,.747.01,1.112.031A236.715,236.715,0,0,1,505.959,222.351c.02.38.031.754.031,1.111v12.749A237.348,237.348,0,0,1,268.772,473.459h-.6a235.358,235.358,0,0,1-97.816-21.427L32.593,497.956A20.168,20.168,0,0,1,26.209,498.993Zm236.058-458.6A196.7,196.7,0,0,0,86.746,325.15a20.2,20.2,0,0,1,1.133,15.494L52.141,447.862l107.215-35.74a20.2,20.2,0,0,1,15.493,1.133,194.735,194.735,0,0,0,87.371,20.811h.494A197.055,197.055,0,0,0,459.6,237.283V225.034A196.306,196.306,0,0,0,274.962,40.394H262.267Z"
                fill="#ffffff"
                id="Shape" transform="translate(0.867 0.667)" />
        </g>
        <g id="Logo" transform="translate(58.001 379.005)">
            <path d="M26.557,27.3,45.3,46.519a26.145,26.145,0,0,1-18.743,7.94C11.89,54.459,0,42.268,0,27.227S11.89,0,26.557,0A26.151,26.151,0,0,1,45.371,8.007Zm0-16.957a3.269,3.269,0,1,0,3.186,3.268A3.228,3.228,0,0,0,26.557,10.343Z" data-name="Path 668"
                fill="#4285f4"
                fill-rule="evenodd" id="Path_668" />
            <path d="M44.127,44.484c.016-.018.034-.034.05-.05a27.761,27.761,0,0,0,0-38.544L25.349,25.214Z" data-name="Path 669"
                fill="#ffd200"
                fill-rule="evenodd" id="Path_669" transform="translate(8.985 2.09)" />
            <path d="M220.1,25.179a15.01,15.01,0,0,0,.668,4.471,9.426,9.426,0,0,0,1.843,3.36,7.907,7.907,0,0,0,2.924,2.1,9.885,9.885,0,0,0,3.887.727,13.989,13.989,0,0,0,8.736-3.2v3.333a16.049,16.049,0,0,1-9.511,2.778,12.68,12.68,0,0,1-5-.952,10.356,10.356,0,0,1-3.821-2.764,12.578,12.578,0,0,1-2.43-4.458,19.587,19.587,0,0,1-.855-6.031,16.474,16.474,0,0,1,.935-5.636,13.862,13.862,0,0,1,2.591-4.483A11.954,11.954,0,0,1,224,11.462a11.507,11.507,0,0,1,4.97-1.071,11.3,11.3,0,0,1,4.674.913,9.169,9.169,0,0,1,3.406,2.606,11.754,11.754,0,0,1,2.1,4.127,19.153,19.153,0,0,1,.722,5.449v1.693Zm14.211-9.523a6.687,6.687,0,0,0-5.422-2.328,8.386,8.386,0,0,0-3.22.61,7.655,7.655,0,0,0-2.6,1.758,9.514,9.514,0,0,0-1.857,2.805,13.914,13.914,0,0,0-1.028,3.717h16.161A10.248,10.248,0,0,0,234.315,15.656Zm-26.282-2.328a9.86,9.86,0,0,0-4.327.913,9.306,9.306,0,0,0-3.192,2.487,11.12,11.12,0,0,0-1.977,3.677,14.387,14.387,0,0,0-.681,4.458,14.887,14.887,0,0,0,.574,4.153,10.258,10.258,0,0,0,1.764,3.505,8.574,8.574,0,0,0,3.006,2.42,9.522,9.522,0,0,0,4.275.9,11.453,11.453,0,0,0,6.946-2.274V36.9a14.453,14.453,0,0,1-7.374,1.877,12.736,12.736,0,0,1-5.289-1.005,11.585,11.585,0,0,1-4.006-2.87,12.711,12.711,0,0,1-2.538-4.338,16.237,16.237,0,0,1-.882-5.437,17.3,17.3,0,0,1,.935-5.727,13.649,13.649,0,0,1,2.725-4.682,12.887,12.887,0,0,1,4.382-3.161,14.326,14.326,0,0,1,5.93-1.165,14.619,14.619,0,0,1,6.2,1.3v3.6A11.582,11.582,0,0,0,208.033,13.327ZM186.962,33.3h-.107a9.969,9.969,0,0,1-3.646,4.021,9.731,9.731,0,0,1-5.223,1.429,10.775,10.775,0,0,1-3.566-.555,7.7,7.7,0,0,1-2.7-1.574,6.934,6.934,0,0,1-1.709-2.448,8.034,8.034,0,0,1-.6-3.148,7.7,7.7,0,0,1,2.3-5.859q2.3-2.184,6.946-2.844l8.308-1.191q0-7.8-6.117-7.8a13.449,13.449,0,0,0-8.87,3.466v-3.7a11.518,11.518,0,0,1,1.937-1.1,17.959,17.959,0,0,1,2.285-.847,18.688,18.688,0,0,1,2.471-.555,15.945,15.945,0,0,1,2.472-.2q4.567,0,6.905,2.54t2.338,7.566V38.115h-3.42Zm0-9.312-7.053.979a21.605,21.605,0,0,0-3.152.661,6.534,6.534,0,0,0-2.164,1.071,4.011,4.011,0,0,0-1.256,1.667,6.563,6.563,0,0,0-.4,2.446,5.149,5.149,0,0,0,.387,2.011,4.484,4.484,0,0,0,1.121,1.6,5.08,5.08,0,0,0,1.789,1.046,7.211,7.211,0,0,0,2.392.37,7.912,7.912,0,0,0,5.97-2.592,8.821,8.821,0,0,0,1.736-2.909,10.493,10.493,0,0,0,.627-3.677ZM164.585,34.571a11.154,11.154,0,0,1-3.887,3.081,11.729,11.729,0,0,1-5.143,1.1,9.316,9.316,0,0,1-8.628-5h-.107V50.575H143.4V11.026h3.42v5.185h.107A10.81,10.81,0,0,1,151,11.886a11.975,11.975,0,0,1,10.446-.555,9.69,9.69,0,0,1,3.5,2.659,11.993,11.993,0,0,1,2.19,4.18A18.649,18.649,0,0,1,167.9,23.7a20.652,20.652,0,0,1-.855,6.123A14.091,14.091,0,0,1,164.585,34.571Zm-.8-15.2a9.684,9.684,0,0,0-1.67-3.267,7.209,7.209,0,0,0-2.618-2.063,8.036,8.036,0,0,0-3.432-.715,9.181,9.181,0,0,0-3.847.78,8.689,8.689,0,0,0-2.912,2.131A9.416,9.416,0,0,0,147.46,19.4a11.473,11.473,0,0,0-.641,3.849v3.6a9.579,9.579,0,0,0,.627,3.478,9.02,9.02,0,0,0,1.75,2.858,8.132,8.132,0,0,0,2.712,1.944,8.464,8.464,0,0,0,3.513.714,7.939,7.939,0,0,0,3.713-.859,8.09,8.09,0,0,0,2.819-2.447,11.794,11.794,0,0,0,1.789-3.836,18.686,18.686,0,0,0,.628-5.026A14.659,14.659,0,0,0,163.783,19.372ZM136.47,36.766a9.776,9.776,0,0,1-3.167,1.482,14.806,14.806,0,0,1-3.954.5,13.193,13.193,0,0,1-6.971-1.72V33.247a10.831,10.831,0,0,0,1.682,1.085,14.422,14.422,0,0,0,1.871.821,11.8,11.8,0,0,0,1.937.515,10.643,10.643,0,0,0,1.856.172q6.091,0,6.091-4.523a3.569,3.569,0,0,0-.427-1.787,4.678,4.678,0,0,0-1.23-1.375A10.285,10.285,0,0,0,132.235,27q-1.121-.528-2.537-1.111a25.582,25.582,0,0,1-3.26-1.562,9.848,9.848,0,0,1-2.243-1.732,6.235,6.235,0,0,1-1.31-2.063,7.163,7.163,0,0,1-.427-2.553,6.418,6.418,0,0,1,.788-3.2,7.44,7.44,0,0,1,2.124-2.381,9.89,9.89,0,0,1,3.085-1.5,12.916,12.916,0,0,1,3.673-.516,13.69,13.69,0,0,1,6.2,1.323v3.572a12.1,12.1,0,0,0-6.625-1.959,8.058,8.058,0,0,0-2.338.318,5.449,5.449,0,0,0-1.8.9,4.145,4.145,0,0,0-1.162,1.388,3.852,3.852,0,0,0-.414,1.787,4.461,4.461,0,0,0,.321,1.758,3.841,3.841,0,0,0,1,1.363,8.464,8.464,0,0,0,1.763,1.165q1.083.555,2.632,1.189a33.676,33.676,0,0,1,3.42,1.575,10.591,10.591,0,0,1,2.377,1.693,5.936,5.936,0,0,1,1.388,2.036,6.914,6.914,0,0,1,.455,2.606,6.823,6.823,0,0,1-.761,3.255A7.052,7.052,0,0,1,136.47,36.766ZM101.2,29.65a9.426,9.426,0,0,0,1.843,3.36,7.907,7.907,0,0,0,2.924,2.1,9.89,9.89,0,0,0,3.887.727,13.989,13.989,0,0,0,8.736-3.2v3.333a16.049,16.049,0,0,1-9.511,2.778,12.68,12.68,0,0,1-5-.952,10.34,10.34,0,0,1-3.82-2.764,12.58,12.58,0,0,1-2.431-4.458,19.588,19.588,0,0,1-.855-6.031,16.507,16.507,0,0,1,.935-5.636,13.862,13.862,0,0,1,2.591-4.483,11.954,11.954,0,0,1,3.927-2.964,11.507,11.507,0,0,1,4.969-1.071,11.3,11.3,0,0,1,4.674.913,9.158,9.158,0,0,1,3.406,2.606,11.754,11.754,0,0,1,2.1,4.127,19.153,19.153,0,0,1,.722,5.449v1.693H100.533A15.01,15.01,0,0,0,101.2,29.65Zm15.575-7.433a10.264,10.264,0,0,0-2.03-6.561,6.69,6.69,0,0,0-5.423-2.328,8.386,8.386,0,0,0-3.22.61,7.655,7.655,0,0,0-2.6,1.758,9.514,9.514,0,0,0-1.857,2.805,14.015,14.015,0,0,0-1.028,3.717ZM89.752,22.19a19.274,19.274,0,0,0-.374-4.113,7.126,7.126,0,0,0-1.162-2.737,4.5,4.5,0,0,0-2-1.535,7.957,7.957,0,0,0-2.9-.477,6.007,6.007,0,0,0-2.832.7,7.465,7.465,0,0,0-2.338,1.931,9.35,9.35,0,0,0-1.575,2.9,10.967,10.967,0,0,0-.574,3.6v15.66h-3.42V21.846q0-8.517-6.6-8.518A6.089,6.089,0,0,0,63.146,14a7.045,7.045,0,0,0-2.285,1.892,9.02,9.02,0,0,0-1.522,2.923,12.272,12.272,0,0,0-.547,3.769V38.115h-3.42V11.026h3.42v4.391H58.9a9.18,9.18,0,0,1,8.415-5.026,8.386,8.386,0,0,1,2.724.437,7.842,7.842,0,0,1,4.047,3.081,8.324,8.324,0,0,1,1.109,2.381A10.919,10.919,0,0,1,78.947,11.9a9.338,9.338,0,0,1,5.223-1.509q9,0,9,11V38.115h-3.42Z" data-name="Path 670"
                fill-rule="evenodd"
                id="Path_670" transform="translate(20.127 3.79)" />
        </g>
    </g>
</svg>