<svg xmlns="http://www.w3.org/2000/svg" width="34.435" height="24" viewBox="0 0 34.435 24">
  <g id="tag_market_place" transform="translate(-321 -130)">
    <path id="tag" d="M33.435-1V23H-1L6.487,11-1-1Z" transform="translate(322 131)" fill="#ffa800" fill-rule="evenodd"/>
    <path id="marketplace" d="M16.831,8.5A3.292,3.292,0,0,1,15.1,8.151V12.5H3.88V8.12a3.187,3.187,0,0,1-1.727.38c-2.361,0-2.159-2-2.159-2V4H.2L3.016.532V0H15.967V.532L18.785,4h.2V6.5A1.939,1.939,0,0,1,16.831,8.5Zm-12.088,3h9.5V8.209a2.359,2.359,0,0,1-1.3.291c-1.68,0-1.729-.863-1.727-.985,0,.122-.1.985-1.726.985-1.754,0-1.727-1-1.727-1s-.054,1-1.727,1a2.174,2.174,0,0,1-1.3-.328ZM3.88,1,1.45,4H3.718L5.337,1ZM6.2,1,4.581,4H7.387l.324-3Zm4.209,0H8.574L8.251,4h2.482Zm.863,0L11.6,4h2.428l-1.3-3ZM15.1,1H13.593l1.3,3h2.645Zm3.022,4H.858V6.5s-.27,1,1.3,1,1.727-1,1.727-1h.863a1.166,1.166,0,0,0,1.3,1,1.166,1.166,0,0,0,1.3-1H8.2s-.027,1,1.3,1,1.3-1,1.3-1h.863s-.067,1,1.3,1,1.3-1,1.3-1H15.1c0,.422.553,1,1.727,1s1.3-1.5,1.3-1.5ZM2.585,15H16.4V9h.863v7H1.721V9h.863Z" transform="translate(332.01 134)" fill="#fff" fill-rule="evenodd"/>
  </g>
</svg>
