<svg xmlns="http://www.w3.org/2000/svg" width="34.435" height="24" viewBox="0 0 34.435 24">
  <g id="tag_help" transform="translate(-321 -289)">
    <path id="tag" d="M33.435-1V23H-1L6.487,11-1-1Z" transform="translate(322 290)" fill="#e92100" fill-rule="evenodd"/>
    <path id="help" d="M8,16a8,8,0,1,1,8-8A8,8,0,0,1,8,16Zm2-1.3A7.013,7.013,0,0,0,14.707,10h-3.84a3.537,3.537,0,0,1-.866.868Zm-1,.22V11.348a3.365,3.365,0,0,1-2,0v3.576a6.617,6.617,0,0,0,2,0ZM6,14.7V10.868A3.537,3.537,0,0,1,5.134,10H1.293A7.013,7.013,0,0,0,6,14.7ZM1,8a7.014,7.014,0,0,0,.079,1H4.662a3.258,3.258,0,0,1-.01-2H1.076A7.015,7.015,0,0,0,1,8ZM6,1.293A7.013,7.013,0,0,0,1.3,6H5.132A3.537,3.537,0,0,1,6,5.134Zm3-.214A7.014,7.014,0,0,0,8,1a7.014,7.014,0,0,0-1,.079V4.662A3.466,3.466,0,0,1,8,4.5a3.466,3.466,0,0,1,1,.162ZM8,5.49A2.51,2.51,0,1,0,10.51,8,2.511,2.511,0,0,0,8,5.49Zm2-4.2v3.84A3.537,3.537,0,0,1,10.868,6H14.7A7.013,7.013,0,0,0,10,1.293ZM11.348,7a3.258,3.258,0,0,1-.01,2H14.92A7.014,7.014,0,0,0,15,8a7.015,7.015,0,0,0-.076-1Z" transform="translate(333 293)" fill="#fff" fill-rule="evenodd"/>
  </g>
</svg>
