<svg xmlns="http://www.w3.org/2000/svg" width="34.435" height="24" viewBox="0 0 34.435 24">
  <g id="tag_social" transform="translate(-321 -630)">
    <path id="tag" d="M33.435-1V23H-1L6.487,11-1-1Z" transform="translate(322 631)" fill="#506df7" fill-rule="evenodd"/>
    <path id="social" d="M14.25,3.5a1.732,1.732,0,0,1-.826-.217l-2.84,2.84a2.487,2.487,0,0,1,0,2.754l1.773,1.773A1.484,1.484,0,0,1,13,10.5,1.5,1.5,0,1,1,11.5,12a1.484,1.484,0,0,1,.15-.643L9.877,9.584A2.493,2.493,0,0,1,9,9.943v2.732a1.751,1.751,0,1,1-1-.15V9.95a2.484,2.484,0,0,1-1.159-.583L3.284,12.924a1.732,1.732,0,0,1,.217.826A1.75,1.75,0,1,1,1.75,12a1.731,1.731,0,0,1,.827.216L6.242,8.552a2.436,2.436,0,0,1,.284-2.569L4.462,3.92a1.5,1.5,0,1,1,.8-.615L7.285,5.328a2.453,2.453,0,0,1,2.592.088l2.839-2.84A1.731,1.731,0,0,1,12.5,1.75,1.75,1.75,0,1,1,14.25,3.5ZM13,12.643A.643.643,0,1,0,12.357,12,.643.643,0,0,0,13,12.643ZM1.75,13a.748.748,0,1,0,.747.748A.747.747,0,0,0,1.75,13ZM4,1.857a.643.643,0,1,0,.643.643A.643.643,0,0,0,4,1.857ZM7.5,14.25A.748.748,0,1,0,8.25,13.5.747.747,0,0,0,7.5,14.25ZM8.5,6A1.5,1.5,0,1,0,10,7.5,1.5,1.5,0,0,0,8.5,6Zm5.75-5a.75.75,0,1,0,.75.75A.75.75,0,0,0,14.25,1Z" transform="translate(333 634)" fill="#fff" fill-rule="evenodd"/>
  </g>
</svg>
