<svg xmlns="http://www.w3.org/2000/svg" width="34.435" height="24" viewBox="0 0 34.435 24">
  <g id="tag_alert" transform="translate(-321 -289)">
    <path id="tag" d="M33.435-1V23H-1L6.487,11-1-1Z" transform="translate(322 290)" fill="#e92100" fill-rule="evenodd"/>
    <g id="danger" transform="translate(332 257.143)">
      <g id="Group_167" data-name="Group 167" transform="translate(0 35.857)">
        <g id="Group_166" data-name="Group 166" transform="translate(0 0)">
          <path id="Path_492" data-name="Path 492" d="M18.366,49.322,10.734,36.665a1.672,1.672,0,0,0-2.863,0L.239,49.322a1.672,1.672,0,0,0,1.431,2.535H16.935a1.672,1.672,0,0,0,1.431-2.535Zm-1.031,1.089a.461.461,0,0,1-.4.234H1.671a.46.46,0,0,1-.394-.7L8.909,37.291a.46.46,0,0,1,.788,0l7.632,12.657A.461.461,0,0,1,17.335,50.412Z" transform="translate(0 -35.857)" fill="#fff"/>
        </g>
      </g>
      <g id="Group_169" data-name="Group 169" transform="translate(8.386 40.489)">
        <g id="Group_168" data-name="Group 168" transform="translate(0 0)">
          <path id="Path_493" data-name="Path 493" d="M234.5,173.005c-.518,0-.923.278-.923.771,0,1.5.177,3.667.177,5.171,0,.392.341.556.746.556.3,0,.733-.164.733-.556,0-1.5.177-3.667.177-5.171A.812.812,0,0,0,234.5,173.005Z" transform="translate(-233.578 -173.005)" fill="#fff"/>
        </g>
      </g>
      <g id="Group_171" data-name="Group 171" transform="translate(8.347 47.218)">
        <g id="Group_170" data-name="Group 170" transform="translate(0 0)">
          <path id="Path_494" data-name="Path 494" d="M233.625,353.306a.974.974,0,1,0,0,1.947.974.974,0,0,0,0-1.947Z" transform="translate(-232.651 -353.306)" fill="#fff"/>
        </g>
      </g>
    </g>
  </g>
</svg>
