<svg xmlns="http://www.w3.org/2000/svg" width="13.351" height="16.003" viewBox="0 0 13.351 16.003">
  <g id="user" transform="translate(0 0)">
    <path id="Path_663" data-name="Path 663" d="M90.886,7.709A3.73,3.73,0,0,0,93.612,6.58a3.73,3.73,0,0,0,1.129-2.725,3.73,3.73,0,0,0-1.129-2.725,3.854,3.854,0,0,0-5.451,0,3.73,3.73,0,0,0-1.129,2.725A3.73,3.73,0,0,0,88.161,6.58,3.731,3.731,0,0,0,90.886,7.709ZM88.824,1.792a2.916,2.916,0,0,1,4.124,0A2.787,2.787,0,0,1,93.8,3.854a2.787,2.787,0,0,1-.855,2.062,2.915,2.915,0,0,1-4.124,0,2.786,2.786,0,0,1-.855-2.062,2.786,2.786,0,0,1,.855-2.062Zm0,0" transform="translate(-84.312)" fill="#4285f4"/>
    <path id="Path_664" data-name="Path 664" d="M13.319,251.892a9.521,9.521,0,0,0-.13-1.011,7.966,7.966,0,0,0-.249-1.017,5.022,5.022,0,0,0-.418-.948,3.574,3.574,0,0,0-.63-.821,2.779,2.779,0,0,0-.905-.569,3.128,3.128,0,0,0-1.156-.209,1.173,1.173,0,0,0-.626.266c-.188.122-.407.264-.653.421a3.738,3.738,0,0,1-.844.372,3.278,3.278,0,0,1-2.066,0A3.728,3.728,0,0,1,4.8,248c-.243-.155-.463-.3-.653-.421a1.172,1.172,0,0,0-.626-.266,3.124,3.124,0,0,0-1.156.209,2.776,2.776,0,0,0-.905.569,3.575,3.575,0,0,0-.63.821,5.032,5.032,0,0,0-.418.948,7.986,7.986,0,0,0-.249,1.017,9.455,9.455,0,0,0-.13,1.012c-.021.306-.032.624-.032.945a2.657,2.657,0,0,0,.789,2.01,2.841,2.841,0,0,0,2.034.742h7.706a2.841,2.841,0,0,0,2.034-.742,2.656,2.656,0,0,0,.789-2.011c0-.322-.011-.641-.032-.945Zm-1.4,2.276a1.913,1.913,0,0,1-1.387.483H2.823a1.913,1.913,0,0,1-1.387-.483,1.735,1.735,0,0,1-.5-1.331c0-.3.01-.6.03-.88a8.53,8.53,0,0,1,.117-.911,7.043,7.043,0,0,1,.219-.9,4.1,4.1,0,0,1,.34-.771,2.65,2.65,0,0,1,.463-.607,1.844,1.844,0,0,1,.6-.374,2.159,2.159,0,0,1,.739-.142c.033.017.091.051.186.113.193.126.415.269.661.426a4.647,4.647,0,0,0,1.06.474,4.216,4.216,0,0,0,2.642,0,4.653,4.653,0,0,0,1.061-.474c.251-.161.467-.3.66-.426.095-.062.153-.1.186-.113a2.16,2.16,0,0,1,.739.142,1.846,1.846,0,0,1,.6.374,2.642,2.642,0,0,1,.463.607,4.083,4.083,0,0,1,.34.771,7.028,7.028,0,0,1,.219.9,8.6,8.6,0,0,1,.117.911h0c.02.283.03.579.03.88a1.735,1.735,0,0,1-.5,1.331Zm0,0" transform="translate(0 -239.586)" fill="#4285f4"/>
  </g>
</svg>
